<?xml version="1.0" encoding="UTF-8" standalone="no"?>
<!-- This is a Stata 17.0 generated SVG file (http://www.stata.com) -->

<svg version="1.1" width="5.500in" height="4.000in" viewBox="0 0 3960 2880" xmlns="http://www.w3.org/2000/svg" xmlns:xlink="http://www.w3.org/1999/xlink">
	<desc>Stata Graph - Graph</desc>
	<rect x="0" y="0" width="3960" height="2880" style="fill:#EAF2F3;stroke:none"/>
	<rect x="0.00" y="0.00" width="3959.88" height="2880.00" style="fill:#EAF2F3"/>
	<rect x="2.88" y="2.88" width="3954.12" height="2874.24" style="fill:none;stroke:#EAF2F3;stroke-width:5.76"/>
	<rect x="390.80" y="100.86" width="3468.22" height="2388.33" style="fill:#FFFFFF"/>
	<rect x="393.68" y="103.74" width="3462.46" height="2382.57" style="fill:none;stroke:#FFFFFF;stroke-width:5.76"/>
	<line x1="390.80" y1="2425.82" x2="3859.02" y2="2425.82" style="stroke:#EAF2F3;stroke-width:8.64"/>
	<line x1="390.80" y1="1973.50" x2="3859.02" y2="1973.50" style="stroke:#EAF2F3;stroke-width:8.64"/>
	<line x1="390.80" y1="1521.18" x2="3859.02" y2="1521.18" style="stroke:#EAF2F3;stroke-width:8.64"/>
	<line x1="390.80" y1="1068.86" x2="3859.02" y2="1068.86" style="stroke:#EAF2F3;stroke-width:8.64"/>
	<line x1="390.80" y1="616.54" x2="3859.02" y2="616.54" style="stroke:#EAF2F3;stroke-width:8.64"/>
	<line x1="390.80" y1="164.22" x2="3859.02" y2="164.22" style="stroke:#EAF2F3;stroke-width:8.64"/>
	<line x1="786.93" y1="2489.19" x2="786.93" y2="100.86" style="stroke:#C10534;stroke-width:8.64"/>
	<line x1="390.80" y1="2186.48" x2="3859.02" y2="2186.48" style="stroke:#C10534;stroke-width:8.64"/>
	<circle cx="540.66" cy="2229.30" r="26.35" style="fill:#1A476F"/>
	<circle cx="540.66" cy="2229.30" r="22.03" style="fill:none;stroke:#1A476F;stroke-width:8.64"/>
	<circle cx="621.97" cy="1897.89" r="26.35" style="fill:#1A476F"/>
	<circle cx="621.97" cy="1897.89" r="22.03" style="fill:none;stroke:#1A476F;stroke-width:8.64"/>
	<circle cx="530.76" cy="2261.35" r="26.35" style="fill:#1A476F"/>
	<circle cx="530.76" cy="2261.35" r="22.03" style="fill:none;stroke:#1A476F;stroke-width:8.64"/>
	<circle cx="520.25" cy="2284.74" r="26.35" style="fill:#1A476F"/>
	<circle cx="520.25" cy="2284.74" r="22.03" style="fill:none;stroke:#1A476F;stroke-width:8.64"/>
	<circle cx="503.79" cy="2188.71" r="26.35" style="fill:#1A476F"/>
	<circle cx="503.79" cy="2188.71" r="22.03" style="fill:none;stroke:#1A476F;stroke-width:8.64"/>
	<circle cx="509.36" cy="2284.74" r="26.35" style="fill:#1A476F"/>
	<circle cx="509.36" cy="2284.74" r="22.03" style="fill:none;stroke:#1A476F;stroke-width:8.64"/>
	<circle cx="508.37" cy="2299.72" r="26.35" style="fill:#1A476F"/>
	<circle cx="508.37" cy="2299.72" r="22.03" style="fill:none;stroke:#1A476F;stroke-width:8.64"/>
	<circle cx="487.82" cy="2139.46" r="26.35" style="fill:#1A476F"/>
	<circle cx="487.82" cy="2139.46" r="22.03" style="fill:none;stroke:#1A476F;stroke-width:8.64"/>
	<circle cx="533.12" cy="2163.96" r="26.35" style="fill:#1A476F"/>
	<circle cx="533.12" cy="2163.96" r="22.03" style="fill:none;stroke:#1A476F;stroke-width:8.64"/>
	<circle cx="516.53" cy="2273.61" r="26.35" style="fill:#1A476F"/>
	<circle cx="516.53" cy="2273.61" r="22.03" style="fill:none;stroke:#1A476F;stroke-width:8.64"/>
	<circle cx="472.48" cy="2229.30" r="26.35" style="fill:#1A476F"/>
	<circle cx="472.48" cy="2229.30" r="22.03" style="fill:none;stroke:#1A476F;stroke-width:8.64"/>
	<circle cx="470.13" cy="2229.30" r="26.35" style="fill:#1A476F"/>
	<circle cx="470.13" cy="2229.30" r="22.03" style="fill:none;stroke:#1A476F;stroke-width:8.64"/>
	<circle cx="474.46" cy="2299.72" r="26.35" style="fill:#1A476F"/>
	<circle cx="474.46" cy="2299.72" r="22.03" style="fill:none;stroke:#1A476F;stroke-width:8.64"/>
	<circle cx="503.17" cy="2110.37" r="26.35" style="fill:#1A476F"/>
	<circle cx="503.17" cy="2110.37" r="22.03" style="fill:none;stroke:#1A476F;stroke-width:8.64"/>
	<circle cx="461.84" cy="2188.71" r="26.35" style="fill:#1A476F"/>
	<circle cx="461.84" cy="2188.71" r="22.03" style="fill:none;stroke:#1A476F;stroke-width:8.64"/>
	<circle cx="461.84" cy="2188.71" r="26.35" style="fill:#1A476F"/>
	<circle cx="461.84" cy="2188.71" r="22.03" style="fill:none;stroke:#1A476F;stroke-width:8.64"/>
	<circle cx="456.76" cy="2015.46" r="26.35" style="fill:#1A476F"/>
	<circle cx="456.76" cy="2015.46" r="22.03" style="fill:none;stroke:#1A476F;stroke-width:8.64"/>
	<circle cx="475.70" cy="2292.91" r="26.35" style="fill:#1A476F"/>
	<circle cx="475.70" cy="2292.91" r="22.03" style="fill:none;stroke:#1A476F;stroke-width:8.64"/>
	<circle cx="460.10" cy="2261.35" r="26.35" style="fill:#1A476F"/>
	<circle cx="460.10" cy="2261.35" r="22.03" style="fill:none;stroke:#1A476F;stroke-width:8.64"/>
	<circle cx="475.20" cy="2209.13" r="26.35" style="fill:#1A476F"/>
	<circle cx="475.20" cy="2209.13" r="22.03" style="fill:none;stroke:#1A476F;stroke-width:8.64"/>
	<circle cx="484.23" cy="1977.34" r="26.35" style="fill:#1A476F"/>
	<circle cx="484.23" cy="1977.34" r="22.03" style="fill:none;stroke:#1A476F;stroke-width:8.64"/>
	<circle cx="480.89" cy="2048.13" r="26.35" style="fill:#1A476F"/>
	<circle cx="480.89" cy="2048.13" r="22.03" style="fill:none;stroke:#1A476F;stroke-width:8.64"/>
	<circle cx="499.08" cy="1608.43" r="26.35" style="fill:#1A476F"/>
	<circle cx="499.08" cy="1608.43" r="22.03" style="fill:none;stroke:#1A476F;stroke-width:8.64"/>
	<circle cx="466.66" cy="2209.13" r="26.35" style="fill:#1A476F"/>
	<circle cx="466.66" cy="2209.13" r="22.03" style="fill:none;stroke:#1A476F;stroke-width:8.64"/>
	<circle cx="459.11" cy="2292.91" r="26.35" style="fill:#1A476F"/>
	<circle cx="459.11" cy="2292.91" r="22.03" style="fill:none;stroke:#1A476F;stroke-width:8.64"/>
	<circle cx="464.19" cy="2209.13" r="26.35" style="fill:#1A476F"/>
	<circle cx="464.19" cy="2209.13" r="22.03" style="fill:none;stroke:#1A476F;stroke-width:8.64"/>
	<circle cx="455.03" cy="2139.46" r="26.35" style="fill:#1A476F"/>
	<circle cx="455.03" cy="2139.46" r="22.03" style="fill:none;stroke:#1A476F;stroke-width:8.64"/>
	<circle cx="459.86" cy="2163.96" r="26.35" style="fill:#1A476F"/>
	<circle cx="459.86" cy="2163.96" r="22.03" style="fill:none;stroke:#1A476F;stroke-width:8.64"/>
	<circle cx="456.27" cy="2273.61" r="26.35" style="fill:#1A476F"/>
	<circle cx="456.27" cy="2273.61" r="22.03" style="fill:none;stroke:#1A476F;stroke-width:8.64"/>
	<circle cx="455.77" cy="2139.46" r="26.35" style="fill:#1A476F"/>
	<circle cx="455.77" cy="2139.46" r="22.03" style="fill:none;stroke:#1A476F;stroke-width:8.64"/>
	<circle cx="455.77" cy="2139.46" r="26.35" style="fill:#1A476F"/>
	<circle cx="455.77" cy="2139.46" r="22.03" style="fill:none;stroke:#1A476F;stroke-width:8.64"/>
	<circle cx="454.04" cy="2303.80" r="26.35" style="fill:#1A476F"/>
	<circle cx="454.04" cy="2303.80" r="22.03" style="fill:none;stroke:#1A476F;stroke-width:8.64"/>
	<circle cx="466.91" cy="1713.50" r="26.35" style="fill:#1A476F"/>
	<circle cx="466.91" cy="1713.50" r="22.03" style="fill:none;stroke:#1A476F;stroke-width:8.64"/>
	<circle cx="454.16" cy="2292.91" r="26.35" style="fill:#1A476F"/>
	<circle cx="454.16" cy="2292.91" r="22.03" style="fill:none;stroke:#1A476F;stroke-width:8.64"/>
	<circle cx="454.16" cy="2292.91" r="26.35" style="fill:#1A476F"/>
	<circle cx="454.16" cy="2292.91" r="22.03" style="fill:none;stroke:#1A476F;stroke-width:8.64"/>
	<circle cx="455.03" cy="2163.96" r="26.35" style="fill:#1A476F"/>
	<circle cx="455.03" cy="2163.96" r="22.03" style="fill:none;stroke:#1A476F;stroke-width:8.64"/>
	<circle cx="458.62" cy="2229.30" r="26.35" style="fill:#1A476F"/>
	<circle cx="458.62" cy="2229.30" r="22.03" style="fill:none;stroke:#1A476F;stroke-width:8.64"/>
	<circle cx="454.04" cy="2245.64" r="26.35" style="fill:#1A476F"/>
	<circle cx="454.04" cy="2245.64" r="22.03" style="fill:none;stroke:#1A476F;stroke-width:8.64"/>
	<circle cx="454.91" cy="2048.13" r="26.35" style="fill:#1A476F"/>
	<circle cx="454.91" cy="2048.13" r="22.03" style="fill:none;stroke:#1A476F;stroke-width:8.64"/>
	<circle cx="454.78" cy="1897.89" r="26.35" style="fill:#1A476F"/>
	<circle cx="454.78" cy="1897.89" r="22.03" style="fill:none;stroke:#1A476F;stroke-width:8.64"/>
	<circle cx="463.94" cy="2284.74" r="26.35" style="fill:#1A476F"/>
	<circle cx="463.94" cy="2284.74" r="22.03" style="fill:none;stroke:#1A476F;stroke-width:8.64"/>
	<circle cx="472.35" cy="2229.30" r="26.35" style="fill:#1A476F"/>
	<circle cx="472.35" cy="2229.30" r="22.03" style="fill:none;stroke:#1A476F;stroke-width:8.64"/>
	<circle cx="463.32" cy="2306.03" r="26.35" style="fill:#1A476F"/>
	<circle cx="463.32" cy="2306.03" r="22.03" style="fill:none;stroke:#1A476F;stroke-width:8.64"/>
	<circle cx="467.40" cy="2284.74" r="26.35" style="fill:#1A476F"/>
	<circle cx="467.40" cy="2284.74" r="22.03" style="fill:none;stroke:#1A476F;stroke-width:8.64"/>
	<circle cx="478.54" cy="2188.71" r="26.35" style="fill:#1A476F"/>
	<circle cx="478.54" cy="2188.71" r="22.03" style="fill:none;stroke:#1A476F;stroke-width:8.64"/>
	<circle cx="478.54" cy="2188.71" r="26.35" style="fill:#1A476F"/>
	<circle cx="478.54" cy="2188.71" r="22.03" style="fill:none;stroke:#1A476F;stroke-width:8.64"/>
	<circle cx="454.53" cy="1977.34" r="26.35" style="fill:#1A476F"/>
	<circle cx="454.53" cy="1977.34" r="22.03" style="fill:none;stroke:#1A476F;stroke-width:8.64"/>
	<circle cx="478.91" cy="2229.30" r="26.35" style="fill:#1A476F"/>
	<circle cx="478.91" cy="2229.30" r="22.03" style="fill:none;stroke:#1A476F;stroke-width:8.64"/>
	<circle cx="465.80" cy="2303.80" r="26.35" style="fill:#1A476F"/>
	<circle cx="465.80" cy="2303.80" r="22.03" style="fill:none;stroke:#1A476F;stroke-width:8.64"/>
	<circle cx="470.50" cy="2299.72" r="26.35" style="fill:#1A476F"/>
	<circle cx="470.50" cy="2299.72" r="22.03" style="fill:none;stroke:#1A476F;stroke-width:8.64"/>
	<circle cx="472.60" cy="2299.72" r="26.35" style="fill:#1A476F"/>
	<circle cx="472.60" cy="2299.72" r="22.03" style="fill:none;stroke:#1A476F;stroke-width:8.64"/>
	<circle cx="470.75" cy="2306.03" r="26.35" style="fill:#1A476F"/>
	<circle cx="470.75" cy="2306.03" r="22.03" style="fill:none;stroke:#1A476F;stroke-width:8.64"/>
	<circle cx="480.15" cy="2299.72" r="26.35" style="fill:#1A476F"/>
	<circle cx="480.15" cy="2299.72" r="22.03" style="fill:none;stroke:#1A476F;stroke-width:8.64"/>
	<circle cx="463.07" cy="2110.37" r="26.35" style="fill:#1A476F"/>
	<circle cx="463.07" cy="2110.37" r="22.03" style="fill:none;stroke:#1A476F;stroke-width:8.64"/>
	<circle cx="504.78" cy="2229.30" r="26.35" style="fill:#1A476F"/>
	<circle cx="504.78" cy="2229.30" r="22.03" style="fill:none;stroke:#1A476F;stroke-width:8.64"/>
	<circle cx="519.01" cy="2081.79" r="26.35" style="fill:#1A476F"/>
	<circle cx="519.01" cy="2081.79" r="22.03" style="fill:none;stroke:#1A476F;stroke-width:8.64"/>
	<circle cx="506.01" cy="2284.74" r="26.35" style="fill:#1A476F"/>
	<circle cx="506.01" cy="2284.74" r="22.03" style="fill:none;stroke:#1A476F;stroke-width:8.64"/>
	<circle cx="473.47" cy="2110.37" r="26.35" style="fill:#1A476F"/>
	<circle cx="473.47" cy="2110.37" r="22.03" style="fill:none;stroke:#1A476F;stroke-width:8.64"/>
	<circle cx="510.59" cy="2261.35" r="26.35" style="fill:#1A476F"/>
	<circle cx="510.59" cy="2261.35" r="22.03" style="fill:none;stroke:#1A476F;stroke-width:8.64"/>
	<circle cx="535.22" cy="2139.46" r="26.35" style="fill:#1A476F"/>
	<circle cx="535.22" cy="2139.46" r="22.03" style="fill:none;stroke:#1A476F;stroke-width:8.64"/>
	<circle cx="535.22" cy="2139.46" r="26.35" style="fill:#1A476F"/>
	<circle cx="535.22" cy="2139.46" r="22.03" style="fill:none;stroke:#1A476F;stroke-width:8.64"/>
	<circle cx="507.50" cy="2306.03" r="26.35" style="fill:#1A476F"/>
	<circle cx="507.50" cy="2306.03" r="22.03" style="fill:none;stroke:#1A476F;stroke-width:8.64"/>
	<circle cx="503.04" cy="2303.80" r="26.35" style="fill:#1A476F"/>
	<circle cx="503.04" cy="2303.80" r="22.03" style="fill:none;stroke:#1A476F;stroke-width:8.64"/>
	<circle cx="487.82" cy="2209.13" r="26.35" style="fill:#1A476F"/>
	<circle cx="487.82" cy="2209.13" r="22.03" style="fill:none;stroke:#1A476F;stroke-width:8.64"/>
	<circle cx="504.28" cy="2273.61" r="26.35" style="fill:#1A476F"/>
	<circle cx="504.28" cy="2273.61" r="22.03" style="fill:none;stroke:#1A476F;stroke-width:8.64"/>
	<circle cx="540.66" cy="2261.35" r="26.35" style="fill:#1A476F"/>
	<circle cx="540.66" cy="2261.35" r="22.03" style="fill:none;stroke:#1A476F;stroke-width:8.64"/>
	<circle cx="519.01" cy="2303.80" r="26.35" style="fill:#1A476F"/>
	<circle cx="519.01" cy="2303.80" r="22.03" style="fill:none;stroke:#1A476F;stroke-width:8.64"/>
	<circle cx="510.96" cy="2209.13" r="26.35" style="fill:#1A476F"/>
	<circle cx="510.96" cy="2209.13" r="22.03" style="fill:none;stroke:#1A476F;stroke-width:8.64"/>
	<circle cx="562.07" cy="2261.35" r="26.35" style="fill:#1A476F"/>
	<circle cx="562.07" cy="2261.35" r="22.03" style="fill:none;stroke:#1A476F;stroke-width:8.64"/>
	<circle cx="549.45" cy="2299.72" r="26.35" style="fill:#1A476F"/>
	<circle cx="549.45" cy="2299.72" r="22.03" style="fill:none;stroke:#1A476F;stroke-width:8.64"/>
	<circle cx="549.45" cy="2299.72" r="26.35" style="fill:#1A476F"/>
	<circle cx="549.45" cy="2299.72" r="22.03" style="fill:none;stroke:#1A476F;stroke-width:8.64"/>
	<circle cx="503.91" cy="2048.13" r="26.35" style="fill:#1A476F"/>
	<circle cx="503.91" cy="2048.13" r="22.03" style="fill:none;stroke:#1A476F;stroke-width:8.64"/>
	<circle cx="550.32" cy="2306.03" r="26.35" style="fill:#1A476F"/>
	<circle cx="550.32" cy="2306.03" r="22.03" style="fill:none;stroke:#1A476F;stroke-width:8.64"/>
	<circle cx="624.94" cy="2081.79" r="26.35" style="fill:#1A476F"/>
	<circle cx="624.94" cy="2081.79" r="22.03" style="fill:none;stroke:#1A476F;stroke-width:8.64"/>
	<circle cx="624.94" cy="2081.79" r="26.35" style="fill:#1A476F"/>
	<circle cx="624.94" cy="2081.79" r="22.03" style="fill:none;stroke:#1A476F;stroke-width:8.64"/>
	<circle cx="627.04" cy="2188.71" r="26.35" style="fill:#1A476F"/>
	<circle cx="627.04" cy="2188.71" r="22.03" style="fill:none;stroke:#1A476F;stroke-width:8.64"/>
	<circle cx="582.37" cy="2292.91" r="26.35" style="fill:#1A476F"/>
	<circle cx="582.37" cy="2292.91" r="22.03" style="fill:none;stroke:#1A476F;stroke-width:8.64"/>
	<circle cx="544.25" cy="1977.34" r="26.35" style="fill:#1A476F"/>
	<circle cx="544.25" cy="1977.34" r="22.03" style="fill:none;stroke:#1A476F;stroke-width:8.64"/>
	<circle cx="638.67" cy="2261.35" r="26.35" style="fill:#1A476F"/>
	<circle cx="638.67" cy="2261.35" r="22.03" style="fill:none;stroke:#1A476F;stroke-width:8.64"/>
	<circle cx="623.95" cy="2306.03" r="26.35" style="fill:#1A476F"/>
	<circle cx="623.95" cy="2306.03" r="22.03" style="fill:none;stroke:#1A476F;stroke-width:8.64"/>
	<circle cx="632.86" cy="2299.72" r="26.35" style="fill:#1A476F"/>
	<circle cx="632.86" cy="2299.72" r="22.03" style="fill:none;stroke:#1A476F;stroke-width:8.64"/>
	<circle cx="566.03" cy="1977.34" r="26.35" style="fill:#1A476F"/>
	<circle cx="566.03" cy="1977.34" r="22.03" style="fill:none;stroke:#1A476F;stroke-width:8.64"/>
	<circle cx="580.76" cy="2110.37" r="26.35" style="fill:#1A476F"/>
	<circle cx="580.76" cy="2110.37" r="22.03" style="fill:none;stroke:#1A476F;stroke-width:8.64"/>
	<circle cx="669.36" cy="2261.35" r="26.35" style="fill:#1A476F"/>
	<circle cx="669.36" cy="2261.35" r="22.03" style="fill:none;stroke:#1A476F;stroke-width:8.64"/>
	<circle cx="684.34" cy="2306.03" r="26.35" style="fill:#1A476F"/>
	<circle cx="684.34" cy="2306.03" r="22.03" style="fill:none;stroke:#1A476F;stroke-width:8.64"/>
	<circle cx="769.11" cy="2139.46" r="26.35" style="fill:#1A476F"/>
	<circle cx="769.11" cy="2139.46" r="22.03" style="fill:none;stroke:#1A476F;stroke-width:8.64"/>
	<circle cx="747.33" cy="2229.30" r="26.35" style="fill:#1A476F"/>
	<circle cx="747.33" cy="2229.30" r="22.03" style="fill:none;stroke:#1A476F;stroke-width:8.64"/>
	<circle cx="717.50" cy="2306.03" r="26.35" style="fill:#1A476F"/>
	<circle cx="717.50" cy="2306.03" r="22.03" style="fill:none;stroke:#1A476F;stroke-width:8.64"/>
	<circle cx="611.20" cy="1608.43" r="26.35" style="fill:#1A476F"/>
	<circle cx="611.20" cy="1608.43" r="22.03" style="fill:none;stroke:#1A476F;stroke-width:8.64"/>
	<circle cx="751.53" cy="2299.72" r="26.35" style="fill:#1A476F"/>
	<circle cx="751.53" cy="2299.72" r="22.03" style="fill:none;stroke:#1A476F;stroke-width:8.64"/>
	<circle cx="730.50" cy="2303.80" r="26.35" style="fill:#1A476F"/>
	<circle cx="730.50" cy="2303.80" r="22.03" style="fill:none;stroke:#1A476F;stroke-width:8.64"/>
	<circle cx="775.79" cy="2284.74" r="26.35" style="fill:#1A476F"/>
	<circle cx="775.79" cy="2284.74" r="22.03" style="fill:none;stroke:#1A476F;stroke-width:8.64"/>
	<circle cx="798.56" cy="2229.30" r="26.35" style="fill:#1A476F"/>
	<circle cx="798.56" cy="2229.30" r="22.03" style="fill:none;stroke:#1A476F;stroke-width:8.64"/>
	<circle cx="739.41" cy="2292.91" r="26.35" style="fill:#1A476F"/>
	<circle cx="739.41" cy="2292.91" r="22.03" style="fill:none;stroke:#1A476F;stroke-width:8.64"/>
	<circle cx="848.06" cy="2081.79" r="26.35" style="fill:#1A476F"/>
	<circle cx="848.06" cy="2081.79" r="22.03" style="fill:none;stroke:#1A476F;stroke-width:8.64"/>
	<circle cx="710.08" cy="2163.96" r="26.35" style="fill:#1A476F"/>
	<circle cx="710.08" cy="2163.96" r="22.03" style="fill:none;stroke:#1A476F;stroke-width:8.64"/>
	<circle cx="710.08" cy="2163.96" r="26.35" style="fill:#1A476F"/>
	<circle cx="710.08" cy="2163.96" r="22.03" style="fill:none;stroke:#1A476F;stroke-width:8.64"/>
	<circle cx="819.47" cy="2229.30" r="26.35" style="fill:#1A476F"/>
	<circle cx="819.47" cy="2229.30" r="22.03" style="fill:none;stroke:#1A476F;stroke-width:8.64"/>
	<circle cx="819.47" cy="2229.30" r="26.35" style="fill:#1A476F"/>
	<circle cx="819.47" cy="2229.30" r="22.03" style="fill:none;stroke:#1A476F;stroke-width:8.64"/>
	<circle cx="739.65" cy="2110.37" r="26.35" style="fill:#1A476F"/>
	<circle cx="739.65" cy="2110.37" r="22.03" style="fill:none;stroke:#1A476F;stroke-width:8.64"/>
	<circle cx="834.20" cy="2303.80" r="26.35" style="fill:#1A476F"/>
	<circle cx="834.20" cy="2303.80" r="22.03" style="fill:none;stroke:#1A476F;stroke-width:8.64"/>
	<circle cx="927.63" cy="2229.30" r="26.35" style="fill:#1A476F"/>
	<circle cx="927.63" cy="2229.30" r="22.03" style="fill:none;stroke:#1A476F;stroke-width:8.64"/>
	<circle cx="876.65" cy="2303.80" r="26.35" style="fill:#1A476F"/>
	<circle cx="876.65" cy="2303.80" r="22.03" style="fill:none;stroke:#1A476F;stroke-width:8.64"/>
	<circle cx="889.52" cy="2306.03" r="26.35" style="fill:#1A476F"/>
	<circle cx="889.52" cy="2306.03" r="22.03" style="fill:none;stroke:#1A476F;stroke-width:8.64"/>
	<circle cx="929.36" cy="2261.35" r="26.35" style="fill:#1A476F"/>
	<circle cx="929.36" cy="2261.35" r="22.03" style="fill:none;stroke:#1A476F;stroke-width:8.64"/>
	<circle cx="884.57" cy="2292.91" r="26.35" style="fill:#1A476F"/>
	<circle cx="884.57" cy="2292.91" r="22.03" style="fill:none;stroke:#1A476F;stroke-width:8.64"/>
	<circle cx="831.11" cy="2110.37" r="26.35" style="fill:#1A476F"/>
	<circle cx="831.11" cy="2110.37" r="22.03" style="fill:none;stroke:#1A476F;stroke-width:8.64"/>
	<circle cx="965.50" cy="2299.72" r="26.35" style="fill:#1A476F"/>
	<circle cx="965.50" cy="2299.72" r="22.03" style="fill:none;stroke:#1A476F;stroke-width:8.64"/>
	<circle cx="1058.81" cy="2188.71" r="26.35" style="fill:#1A476F"/>
	<circle cx="1058.81" cy="2188.71" r="22.03" style="fill:none;stroke:#1A476F;stroke-width:8.64"/>
	<circle cx="1094.94" cy="2081.79" r="26.35" style="fill:#1A476F"/>
	<circle cx="1094.94" cy="2081.79" r="22.03" style="fill:none;stroke:#1A476F;stroke-width:8.64"/>
	<circle cx="867.49" cy="1977.34" r="26.35" style="fill:#1A476F"/>
	<circle cx="867.49" cy="1977.34" r="22.03" style="fill:none;stroke:#1A476F;stroke-width:8.64"/>
	<circle cx="1093.95" cy="2188.71" r="26.35" style="fill:#1A476F"/>
	<circle cx="1093.95" cy="2188.71" r="22.03" style="fill:none;stroke:#1A476F;stroke-width:8.64"/>
	<circle cx="932.33" cy="2163.96" r="26.35" style="fill:#1A476F"/>
	<circle cx="932.33" cy="2163.96" r="22.03" style="fill:none;stroke:#1A476F;stroke-width:8.64"/>
	<circle cx="909.07" cy="1897.89" r="26.35" style="fill:#1A476F"/>
	<circle cx="909.07" cy="1897.89" r="22.03" style="fill:none;stroke:#1A476F;stroke-width:8.64"/>
	<circle cx="1134.42" cy="2261.35" r="26.35" style="fill:#1A476F"/>
	<circle cx="1134.42" cy="2261.35" r="22.03" style="fill:none;stroke:#1A476F;stroke-width:8.64"/>
	<circle cx="1011.90" cy="2209.13" r="26.35" style="fill:#1A476F"/>
	<circle cx="1011.90" cy="2209.13" r="22.03" style="fill:none;stroke:#1A476F;stroke-width:8.64"/>
	<circle cx="1236.88" cy="1940.58" r="26.35" style="fill:#1A476F"/>
	<circle cx="1236.88" cy="1940.58" r="22.03" style="fill:none;stroke:#1A476F;stroke-width:8.64"/>
	<circle cx="1045.69" cy="2209.13" r="26.35" style="fill:#1A476F"/>
	<circle cx="1045.69" cy="2209.13" r="22.03" style="fill:none;stroke:#1A476F;stroke-width:8.64"/>
	<circle cx="1109.91" cy="2292.91" r="26.35" style="fill:#1A476F"/>
	<circle cx="1109.91" cy="2292.91" r="22.03" style="fill:none;stroke:#1A476F;stroke-width:8.64"/>
	<circle cx="1281.56" cy="2081.79" r="26.35" style="fill:#1A476F"/>
	<circle cx="1281.56" cy="2081.79" r="22.03" style="fill:none;stroke:#1A476F;stroke-width:8.64"/>
	<circle cx="1211.51" cy="2261.35" r="26.35" style="fill:#1A476F"/>
	<circle cx="1211.51" cy="2261.35" r="22.03" style="fill:none;stroke:#1A476F;stroke-width:8.64"/>
	<circle cx="1187.75" cy="2273.61" r="26.35" style="fill:#1A476F"/>
	<circle cx="1187.75" cy="2273.61" r="22.03" style="fill:none;stroke:#1A476F;stroke-width:8.64"/>
	<circle cx="1274.63" cy="2284.74" r="26.35" style="fill:#1A476F"/>
	<circle cx="1274.63" cy="2284.74" r="22.03" style="fill:none;stroke:#1A476F;stroke-width:8.64"/>
	<circle cx="1340.34" cy="2299.72" r="26.35" style="fill:#1A476F"/>
	<circle cx="1340.34" cy="2299.72" r="22.03" style="fill:none;stroke:#1A476F;stroke-width:8.64"/>
	<circle cx="1347.64" cy="2292.91" r="26.35" style="fill:#1A476F"/>
	<circle cx="1347.64" cy="2292.91" r="22.03" style="fill:none;stroke:#1A476F;stroke-width:8.64"/>
	<circle cx="1259.28" cy="2048.13" r="26.35" style="fill:#1A476F"/>
	<circle cx="1259.28" cy="2048.13" r="22.03" style="fill:none;stroke:#1A476F;stroke-width:8.64"/>
	<circle cx="1199.76" cy="1713.50" r="26.35" style="fill:#1A476F"/>
	<circle cx="1199.76" cy="1713.50" r="22.03" style="fill:none;stroke:#1A476F;stroke-width:8.64"/>
	<circle cx="1603.55" cy="2229.30" r="26.35" style="fill:#1A476F"/>
	<circle cx="1603.55" cy="2229.30" r="22.03" style="fill:none;stroke:#1A476F;stroke-width:8.64"/>
	<circle cx="2158.94" cy="2303.80" r="26.35" style="fill:#1A476F"/>
	<circle cx="2158.94" cy="2303.80" r="22.03" style="fill:none;stroke:#1A476F;stroke-width:8.64"/>
	<circle cx="2456.56" cy="276.96" r="26.35" style="fill:#1A476F"/>
	<circle cx="2456.56" cy="276.96" r="22.03" style="fill:none;stroke:#1A476F;stroke-width:8.64"/>
	<circle cx="3795.66" cy="2209.13" r="26.35" style="fill:#1A476F"/>
	<circle cx="3795.66" cy="2209.13" r="22.03" style="fill:none;stroke:#1A476F;stroke-width:8.64"/>
	<circle cx="2979.90" cy="2163.96" r="26.35" style="fill:#1A476F"/>
	<circle cx="2979.90" cy="2163.96" r="22.03" style="fill:none;stroke:#1A476F;stroke-width:8.64"/>
	<circle cx="2849.47" cy="1810.02" r="26.35" style="fill:#1A476F"/>
	<circle cx="2849.47" cy="1810.02" r="22.03" style="fill:none;stroke:#1A476F;stroke-width:8.64"/>
	<circle cx="2153.75" cy="2292.91" r="26.35" style="fill:#1A476F"/>
	<circle cx="2153.75" cy="2292.91" r="22.03" style="fill:none;stroke:#1A476F;stroke-width:8.64"/>
	<circle cx="1867.76" cy="2292.91" r="26.35" style="fill:#1A476F"/>
	<circle cx="1867.76" cy="2292.91" r="22.03" style="fill:none;stroke:#1A476F;stroke-width:8.64"/>
	<circle cx="1703.67" cy="2245.64" r="26.35" style="fill:#1A476F"/>
	<circle cx="1703.67" cy="2245.64" r="22.03" style="fill:none;stroke:#1A476F;stroke-width:8.64"/>
	<circle cx="1617.17" cy="2306.03" r="26.35" style="fill:#1A476F"/>
	<circle cx="1617.17" cy="2306.03" r="22.03" style="fill:none;stroke:#1A476F;stroke-width:8.64"/>
	<circle cx="1450.72" cy="2303.80" r="26.35" style="fill:#1A476F"/>
	<circle cx="1450.72" cy="2303.80" r="22.03" style="fill:none;stroke:#1A476F;stroke-width:8.64"/>
	<circle cx="1406.67" cy="2303.80" r="26.35" style="fill:#1A476F"/>
	<circle cx="1406.67" cy="2303.80" r="22.03" style="fill:none;stroke:#1A476F;stroke-width:8.64"/>
	<circle cx="1260.15" cy="2284.74" r="26.35" style="fill:#1A476F"/>
	<circle cx="1260.15" cy="2284.74" r="22.03" style="fill:none;stroke:#1A476F;stroke-width:8.64"/>
	<circle cx="1422.14" cy="1977.34" r="26.35" style="fill:#1A476F"/>
	<circle cx="1422.14" cy="1977.34" r="22.03" style="fill:none;stroke:#1A476F;stroke-width:8.64"/>
	<circle cx="1098.03" cy="2229.30" r="26.35" style="fill:#1A476F"/>
	<circle cx="1098.03" cy="2229.30" r="22.03" style="fill:none;stroke:#1A476F;stroke-width:8.64"/>
	<circle cx="1185.40" cy="2292.91" r="26.35" style="fill:#1A476F"/>
	<circle cx="1185.40" cy="2292.91" r="22.03" style="fill:none;stroke:#1A476F;stroke-width:8.64"/>
	<circle cx="1034.30" cy="2081.79" r="26.35" style="fill:#1A476F"/>
	<circle cx="1034.30" cy="2081.79" r="22.03" style="fill:none;stroke:#1A476F;stroke-width:8.64"/>
	<circle cx="1138.50" cy="2292.91" r="26.35" style="fill:#1A476F"/>
	<circle cx="1138.50" cy="2292.91" r="22.03" style="fill:none;stroke:#1A476F;stroke-width:8.64"/>
	<circle cx="1059.42" cy="2261.35" r="26.35" style="fill:#1A476F"/>
	<circle cx="1059.42" cy="2261.35" r="22.03" style="fill:none;stroke:#1A476F;stroke-width:8.64"/>
	<circle cx="1074.89" cy="2284.74" r="26.35" style="fill:#1A476F"/>
	<circle cx="1074.89" cy="2284.74" r="22.03" style="fill:none;stroke:#1A476F;stroke-width:8.64"/>
	<circle cx="1111.89" cy="2303.80" r="26.35" style="fill:#1A476F"/>
	<circle cx="1111.89" cy="2303.80" r="22.03" style="fill:none;stroke:#1A476F;stroke-width:8.64"/>
	<circle cx="1023.29" cy="2284.74" r="26.35" style="fill:#1A476F"/>
	<circle cx="1023.29" cy="2284.74" r="22.03" style="fill:none;stroke:#1A476F;stroke-width:8.64"/>
	<circle cx="912.29" cy="2261.35" r="26.35" style="fill:#1A476F"/>
	<circle cx="912.29" cy="2261.35" r="22.03" style="fill:none;stroke:#1A476F;stroke-width:8.64"/>
	<circle cx="981.34" cy="2292.91" r="26.35" style="fill:#1A476F"/>
	<circle cx="981.34" cy="2292.91" r="22.03" style="fill:none;stroke:#1A476F;stroke-width:8.64"/>
	<circle cx="870.71" cy="2229.30" r="26.35" style="fill:#1A476F"/>
	<circle cx="870.71" cy="2229.30" r="22.03" style="fill:none;stroke:#1A476F;stroke-width:8.64"/>
	<circle cx="868.73" cy="2229.30" r="26.35" style="fill:#1A476F"/>
	<circle cx="868.73" cy="2229.30" r="22.03" style="fill:none;stroke:#1A476F;stroke-width:8.64"/>
	<circle cx="962.28" cy="2273.61" r="26.35" style="fill:#1A476F"/>
	<circle cx="962.28" cy="2273.61" r="22.03" style="fill:none;stroke:#1A476F;stroke-width:8.64"/>
	<circle cx="917.11" cy="2303.80" r="26.35" style="fill:#1A476F"/>
	<circle cx="917.11" cy="2303.80" r="22.03" style="fill:none;stroke:#1A476F;stroke-width:8.64"/>
	<circle cx="804.00" cy="2139.46" r="26.35" style="fill:#1A476F"/>
	<circle cx="804.00" cy="2139.46" r="22.03" style="fill:none;stroke:#1A476F;stroke-width:8.64"/>
	<circle cx="838.90" cy="2261.35" r="26.35" style="fill:#1A476F"/>
	<circle cx="838.90" cy="2261.35" r="22.03" style="fill:none;stroke:#1A476F;stroke-width:8.64"/>
	<circle cx="803.88" cy="2299.72" r="26.35" style="fill:#1A476F"/>
	<circle cx="803.88" cy="2299.72" r="22.03" style="fill:none;stroke:#1A476F;stroke-width:8.64"/>
	<circle cx="864.52" cy="2245.64" r="26.35" style="fill:#1A476F"/>
	<circle cx="864.52" cy="2245.64" r="22.03" style="fill:none;stroke:#1A476F;stroke-width:8.64"/>
	<circle cx="759.45" cy="2261.35" r="26.35" style="fill:#1A476F"/>
	<circle cx="759.45" cy="2261.35" r="22.03" style="fill:none;stroke:#1A476F;stroke-width:8.64"/>
	<circle cx="716.14" cy="2139.46" r="26.35" style="fill:#1A476F"/>
	<circle cx="716.14" cy="2139.46" r="22.03" style="fill:none;stroke:#1A476F;stroke-width:8.64"/>
	<circle cx="789.03" cy="2292.91" r="26.35" style="fill:#1A476F"/>
	<circle cx="789.03" cy="2292.91" r="22.03" style="fill:none;stroke:#1A476F;stroke-width:8.64"/>
	<circle cx="734.46" cy="2261.35" r="26.35" style="fill:#1A476F"/>
	<circle cx="734.46" cy="2261.35" r="22.03" style="fill:none;stroke:#1A476F;stroke-width:8.64"/>
	<circle cx="681.00" cy="2188.71" r="26.35" style="fill:#1A476F"/>
	<circle cx="681.00" cy="2188.71" r="22.03" style="fill:none;stroke:#1A476F;stroke-width:8.64"/>
	<circle cx="670.48" cy="2188.71" r="26.35" style="fill:#1A476F"/>
	<circle cx="670.48" cy="2188.71" r="22.03" style="fill:none;stroke:#1A476F;stroke-width:8.64"/>
	<circle cx="689.16" cy="2261.35" r="26.35" style="fill:#1A476F"/>
	<circle cx="689.16" cy="2261.35" r="22.03" style="fill:none;stroke:#1A476F;stroke-width:8.64"/>
	<circle cx="694.86" cy="2284.74" r="26.35" style="fill:#1A476F"/>
	<circle cx="694.86" cy="2284.74" r="22.03" style="fill:none;stroke:#1A476F;stroke-width:8.64"/>
	<circle cx="725.42" cy="2273.61" r="26.35" style="fill:#1A476F"/>
	<circle cx="725.42" cy="2273.61" r="22.03" style="fill:none;stroke:#1A476F;stroke-width:8.64"/>
	<circle cx="754.13" cy="2048.13" r="26.35" style="fill:#1A476F"/>
	<circle cx="754.13" cy="2048.13" r="22.03" style="fill:none;stroke:#1A476F;stroke-width:8.64"/>
	<circle cx="606.38" cy="2015.46" r="26.35" style="fill:#1A476F"/>
	<circle cx="606.38" cy="2015.46" r="22.03" style="fill:none;stroke:#1A476F;stroke-width:8.64"/>
	<circle cx="663.67" cy="2306.03" r="26.35" style="fill:#1A476F"/>
	<circle cx="663.67" cy="2306.03" r="22.03" style="fill:none;stroke:#1A476F;stroke-width:8.64"/>
	<circle cx="628.16" cy="2261.35" r="26.35" style="fill:#1A476F"/>
	<circle cx="628.16" cy="2261.35" r="22.03" style="fill:none;stroke:#1A476F;stroke-width:8.64"/>
	<circle cx="662.56" cy="2303.80" r="26.35" style="fill:#1A476F"/>
	<circle cx="662.56" cy="2303.80" r="22.03" style="fill:none;stroke:#1A476F;stroke-width:8.64"/>
	<circle cx="589.42" cy="2015.46" r="26.35" style="fill:#1A476F"/>
	<circle cx="589.42" cy="2015.46" r="22.03" style="fill:none;stroke:#1A476F;stroke-width:8.64"/>
	<circle cx="643.75" cy="2306.03" r="26.35" style="fill:#1A476F"/>
	<circle cx="643.75" cy="2306.03" r="22.03" style="fill:none;stroke:#1A476F;stroke-width:8.64"/>
	<circle cx="696.71" cy="2110.37" r="26.35" style="fill:#1A476F"/>
	<circle cx="696.71" cy="2110.37" r="22.03" style="fill:none;stroke:#1A476F;stroke-width:8.64"/>
	<circle cx="625.31" cy="2299.72" r="26.35" style="fill:#1A476F"/>
	<circle cx="625.31" cy="2299.72" r="22.03" style="fill:none;stroke:#1A476F;stroke-width:8.64"/>
	<circle cx="584.60" cy="2139.46" r="26.35" style="fill:#1A476F"/>
	<circle cx="584.60" cy="2139.46" r="22.03" style="fill:none;stroke:#1A476F;stroke-width:8.64"/>
	<circle cx="624.20" cy="2306.03" r="26.35" style="fill:#1A476F"/>
	<circle cx="624.20" cy="2306.03" r="22.03" style="fill:none;stroke:#1A476F;stroke-width:8.64"/>
	<circle cx="571.23" cy="2139.46" r="26.35" style="fill:#1A476F"/>
	<circle cx="571.23" cy="2139.46" r="22.03" style="fill:none;stroke:#1A476F;stroke-width:8.64"/>
	<circle cx="636.94" cy="2273.61" r="26.35" style="fill:#1A476F"/>
	<circle cx="636.94" cy="2273.61" r="22.03" style="fill:none;stroke:#1A476F;stroke-width:8.64"/>
	<circle cx="585.21" cy="2261.35" r="26.35" style="fill:#1A476F"/>
	<circle cx="585.21" cy="2261.35" r="22.03" style="fill:none;stroke:#1A476F;stroke-width:8.64"/>
	<circle cx="620.98" cy="2273.61" r="26.35" style="fill:#1A476F"/>
	<circle cx="620.98" cy="2273.61" r="22.03" style="fill:none;stroke:#1A476F;stroke-width:8.64"/>
	<circle cx="538.31" cy="1940.58" r="26.35" style="fill:#1A476F"/>
	<circle cx="538.31" cy="1940.58" r="22.03" style="fill:none;stroke:#1A476F;stroke-width:8.64"/>
	<circle cx="637.44" cy="2209.13" r="26.35" style="fill:#1A476F"/>
	<circle cx="637.44" cy="2209.13" r="22.03" style="fill:none;stroke:#1A476F;stroke-width:8.64"/>
	<circle cx="525.44" cy="1940.58" r="26.35" style="fill:#1A476F"/>
	<circle cx="525.44" cy="1940.58" r="22.03" style="fill:none;stroke:#1A476F;stroke-width:8.64"/>
	<circle cx="580.76" cy="2306.03" r="26.35" style="fill:#1A476F"/>
	<circle cx="580.76" cy="2306.03" r="22.03" style="fill:none;stroke:#1A476F;stroke-width:8.64"/>
	<circle cx="542.15" cy="2139.46" r="26.35" style="fill:#1A476F"/>
	<circle cx="542.15" cy="2139.46" r="22.03" style="fill:none;stroke:#1A476F;stroke-width:8.64"/>
	<circle cx="567.15" cy="2284.74" r="26.35" style="fill:#1A476F"/>
	<circle cx="567.15" cy="2284.74" r="22.03" style="fill:none;stroke:#1A476F;stroke-width:8.64"/>
	<line x1="390.80" y1="2489.19" x2="390.80" y2="100.86" style="stroke:#000000;stroke-width:5.76"/>
	<line x1="390.80" y1="2425.82" x2="350.83" y2="2425.82" style="stroke:#000000;stroke-width:5.76"/>
	<text x="300.72" y="2425.82" style="font-family:'Helvetica';font-size:99.99px;fill:#000000" transform="rotate(-90 300.72,2425.82)" text-anchor="middle">0</text>
	<line x1="390.80" y1="1973.50" x2="350.83" y2="1973.50" style="stroke:#000000;stroke-width:5.76"/>
	<text x="300.72" y="1973.50" style="font-family:'Helvetica';font-size:99.99px;fill:#000000" transform="rotate(-90 300.72,1973.50)" text-anchor="middle">.02</text>
	<line x1="390.80" y1="1521.18" x2="350.83" y2="1521.18" style="stroke:#000000;stroke-width:5.76"/>
	<text x="300.72" y="1521.18" style="font-family:'Helvetica';font-size:99.99px;fill:#000000" transform="rotate(-90 300.72,1521.18)" text-anchor="middle">.04</text>
	<line x1="390.80" y1="1068.86" x2="350.83" y2="1068.86" style="stroke:#000000;stroke-width:5.76"/>
	<text x="300.72" y="1068.86" style="font-family:'Helvetica';font-size:99.99px;fill:#000000" transform="rotate(-90 300.72,1068.86)" text-anchor="middle">.06</text>
	<line x1="390.80" y1="616.54" x2="350.83" y2="616.54" style="stroke:#000000;stroke-width:5.76"/>
	<text x="300.72" y="616.54" style="font-family:'Helvetica';font-size:99.99px;fill:#000000" transform="rotate(-90 300.72,616.54)" text-anchor="middle">.08</text>
	<line x1="390.80" y1="164.22" x2="350.83" y2="164.22" style="stroke:#000000;stroke-width:5.76"/>
	<text x="300.72" y="164.22" style="font-family:'Helvetica';font-size:99.99px;fill:#000000" transform="rotate(-90 300.72,164.22)" text-anchor="middle">.1</text>
	<text x="190.71" y="1294.96" style="font-family:'Helvetica';font-size:99.99px;fill:#000000" transform="rotate(-90 190.71,1294.96)" text-anchor="middle">Leverage</text>
	<line x1="390.80" y1="2489.19" x2="3859.02" y2="2489.19" style="stroke:#000000;stroke-width:5.76"/>
	<line x1="454.16" y1="2489.19" x2="454.16" y2="2529.16" style="stroke:#000000;stroke-width:5.76"/>
	<text x="454.16" y="2619.14" style="font-family:'Helvetica';font-size:99.99px;fill:#000000" text-anchor="middle">0</text>
	<line x1="1083.18" y1="2489.19" x2="1083.18" y2="2529.16" style="stroke:#000000;stroke-width:5.76"/>
	<text x="1083.18" y="2619.14" style="font-family:'Helvetica';font-size:99.99px;fill:#000000" text-anchor="middle">.01</text>
	<line x1="1712.21" y1="2489.19" x2="1712.21" y2="2529.16" style="stroke:#000000;stroke-width:5.76"/>
	<text x="1712.21" y="2619.14" style="font-family:'Helvetica';font-size:99.99px;fill:#000000" text-anchor="middle">.02</text>
	<line x1="2341.23" y1="2489.19" x2="2341.23" y2="2529.16" style="stroke:#000000;stroke-width:5.76"/>
	<text x="2341.23" y="2619.14" style="font-family:'Helvetica';font-size:99.99px;fill:#000000" text-anchor="middle">.03</text>
	<line x1="2970.37" y1="2489.19" x2="2970.37" y2="2529.16" style="stroke:#000000;stroke-width:5.76"/>
	<text x="2970.37" y="2619.14" style="font-family:'Helvetica';font-size:99.99px;fill:#000000" text-anchor="middle">.04</text>
	<line x1="3599.39" y1="2489.19" x2="3599.39" y2="2529.16" style="stroke:#000000;stroke-width:5.76"/>
	<text x="3599.39" y="2619.14" style="font-family:'Helvetica';font-size:99.99px;fill:#000000" text-anchor="middle">.05</text>
	<text x="2124.91" y="2729.16" style="font-family:'Helvetica';font-size:99.99px;fill:#000000" text-anchor="middle">Normalized residual squared</text>
</svg>
