<?xml version="1.0" encoding="UTF-8" standalone="no"?>
<!-- This is a Stata 17.0 generated SVG file (http://www.stata.com) -->

<svg version="1.1" width="5.500in" height="4.000in" viewBox="0 0 3960 2880" xmlns="http://www.w3.org/2000/svg" xmlns:xlink="http://www.w3.org/1999/xlink">
	<desc>Stata Graph - Graph</desc>
	<rect x="0" y="0" width="3960" height="2880" style="fill:#EAF2F3;stroke:none"/>
	<rect x="0.00" y="0.00" width="3959.88" height="2880.00" style="fill:#EAF2F3"/>
	<rect x="2.88" y="2.88" width="3954.12" height="2874.24" style="fill:none;stroke:#EAF2F3;stroke-width:5.76"/>
	<rect x="390.80" y="100.86" width="3468.22" height="2388.33" style="fill:#FFFFFF"/>
	<rect x="393.68" y="103.74" width="3462.46" height="2382.57" style="fill:none;stroke:#FFFFFF;stroke-width:5.76"/>
	<circle cx="573.21" cy="2425.95" r="26.35" style="fill:#1A476F"/>
	<circle cx="573.21" cy="2425.95" r="22.03" style="fill:none;stroke:#1A476F;stroke-width:8.64"/>
	<circle cx="725.55" cy="2268.16" r="26.35" style="fill:#1A476F"/>
	<circle cx="725.55" cy="2268.16" r="22.03" style="fill:none;stroke:#1A476F;stroke-width:8.64"/>
	<circle cx="820.96" cy="2240.69" r="26.35" style="fill:#1A476F"/>
	<circle cx="820.96" cy="2240.69" r="22.03" style="fill:none;stroke:#1A476F;stroke-width:8.64"/>
	<circle cx="892.11" cy="2079.31" r="26.35" style="fill:#1A476F"/>
	<circle cx="892.11" cy="2079.31" r="22.03" style="fill:none;stroke:#1A476F;stroke-width:8.64"/>
	<circle cx="949.41" cy="2003.45" r="26.35" style="fill:#1A476F"/>
	<circle cx="949.41" cy="2003.45" r="22.03" style="fill:none;stroke:#1A476F;stroke-width:8.64"/>
	<circle cx="997.80" cy="1956.42" r="26.35" style="fill:#1A476F"/>
	<circle cx="997.80" cy="1956.42" r="22.03" style="fill:none;stroke:#1A476F;stroke-width:8.64"/>
	<circle cx="1039.99" cy="1930.44" r="26.35" style="fill:#1A476F"/>
	<circle cx="1039.99" cy="1930.44" r="22.03" style="fill:none;stroke:#1A476F;stroke-width:8.64"/>
	<circle cx="1077.49" cy="1877.47" r="26.35" style="fill:#1A476F"/>
	<circle cx="1077.49" cy="1877.47" r="22.03" style="fill:none;stroke:#1A476F;stroke-width:8.64"/>
	<circle cx="1111.40" cy="1867.94" r="26.35" style="fill:#1A476F"/>
	<circle cx="1111.40" cy="1867.94" r="22.03" style="fill:none;stroke:#1A476F;stroke-width:8.64"/>
	<circle cx="1142.34" cy="1862.74" r="26.35" style="fill:#1A476F"/>
	<circle cx="1142.34" cy="1862.74" r="22.03" style="fill:none;stroke:#1A476F;stroke-width:8.64"/>
	<circle cx="1170.92" cy="1811.01" r="26.35" style="fill:#1A476F"/>
	<circle cx="1170.92" cy="1811.01" r="22.03" style="fill:none;stroke:#1A476F;stroke-width:8.64"/>
	<circle cx="1197.53" cy="1782.80" r="26.35" style="fill:#1A476F"/>
	<circle cx="1197.53" cy="1782.80" r="22.03" style="fill:none;stroke:#1A476F;stroke-width:8.64"/>
	<circle cx="1222.53" cy="1764.36" r="26.35" style="fill:#1A476F"/>
	<circle cx="1222.53" cy="1764.36" r="22.03" style="fill:none;stroke:#1A476F;stroke-width:8.64"/>
	<circle cx="1246.04" cy="1753.72" r="26.35" style="fill:#1A476F"/>
	<circle cx="1246.04" cy="1753.72" r="22.03" style="fill:none;stroke:#1A476F;stroke-width:8.64"/>
	<circle cx="1268.31" cy="1748.02" r="26.35" style="fill:#1A476F"/>
	<circle cx="1268.31" cy="1748.02" r="22.03" style="fill:none;stroke:#1A476F;stroke-width:8.64"/>
	<circle cx="1289.47" cy="1738.37" r="26.35" style="fill:#1A476F"/>
	<circle cx="1289.47" cy="1738.37" r="22.03" style="fill:none;stroke:#1A476F;stroke-width:8.64"/>
	<circle cx="1309.65" cy="1731.81" r="26.35" style="fill:#1A476F"/>
	<circle cx="1309.65" cy="1731.81" r="22.03" style="fill:none;stroke:#1A476F;stroke-width:8.64"/>
	<circle cx="1328.95" cy="1721.05" r="26.35" style="fill:#1A476F"/>
	<circle cx="1328.95" cy="1721.05" r="22.03" style="fill:none;stroke:#1A476F;stroke-width:8.64"/>
	<circle cx="1347.51" cy="1716.22" r="26.35" style="fill:#1A476F"/>
	<circle cx="1347.51" cy="1716.22" r="22.03" style="fill:none;stroke:#1A476F;stroke-width:8.64"/>
	<circle cx="1365.33" cy="1697.53" r="26.35" style="fill:#1A476F"/>
	<circle cx="1365.33" cy="1697.53" r="22.03" style="fill:none;stroke:#1A476F;stroke-width:8.64"/>
	<circle cx="1382.66" cy="1688.75" r="26.35" style="fill:#1A476F"/>
	<circle cx="1382.66" cy="1688.75" r="22.03" style="fill:none;stroke:#1A476F;stroke-width:8.64"/>
	<circle cx="1399.24" cy="1667.34" r="26.35" style="fill:#1A476F"/>
	<circle cx="1399.24" cy="1667.34" r="22.03" style="fill:none;stroke:#1A476F;stroke-width:8.64"/>
	<circle cx="1415.33" cy="1664.98" r="26.35" style="fill:#1A476F"/>
	<circle cx="1415.33" cy="1664.98" r="22.03" style="fill:none;stroke:#1A476F;stroke-width:8.64"/>
	<circle cx="1430.92" cy="1644.19" r="26.35" style="fill:#1A476F"/>
	<circle cx="1430.92" cy="1644.19" r="22.03" style="fill:none;stroke:#1A476F;stroke-width:8.64"/>
	<circle cx="1446.14" cy="1643.20" r="26.35" style="fill:#1A476F"/>
	<circle cx="1446.14" cy="1643.20" r="22.03" style="fill:none;stroke:#1A476F;stroke-width:8.64"/>
	<circle cx="1460.87" cy="1640.98" r="26.35" style="fill:#1A476F"/>
	<circle cx="1460.87" cy="1640.98" r="22.03" style="fill:none;stroke:#1A476F;stroke-width:8.64"/>
	<circle cx="1475.35" cy="1627.61" r="26.35" style="fill:#1A476F"/>
	<circle cx="1475.35" cy="1627.61" r="22.03" style="fill:none;stroke:#1A476F;stroke-width:8.64"/>
	<circle cx="1489.33" cy="1608.55" r="26.35" style="fill:#1A476F"/>
	<circle cx="1489.33" cy="1608.55" r="22.03" style="fill:none;stroke:#1A476F;stroke-width:8.64"/>
	<circle cx="1503.07" cy="1608.43" r="26.35" style="fill:#1A476F"/>
	<circle cx="1503.07" cy="1608.43" r="22.03" style="fill:none;stroke:#1A476F;stroke-width:8.64"/>
	<circle cx="1516.43" cy="1600.14" r="26.35" style="fill:#1A476F"/>
	<circle cx="1516.43" cy="1600.14" r="22.03" style="fill:none;stroke:#1A476F;stroke-width:8.64"/>
	<circle cx="1529.55" cy="1582.81" r="26.35" style="fill:#1A476F"/>
	<circle cx="1529.55" cy="1582.81" r="22.03" style="fill:none;stroke:#1A476F;stroke-width:8.64"/>
	<circle cx="1542.30" cy="1579.59" r="26.35" style="fill:#1A476F"/>
	<circle cx="1542.30" cy="1579.59" r="22.03" style="fill:none;stroke:#1A476F;stroke-width:8.64"/>
	<circle cx="1554.92" cy="1567.47" r="26.35" style="fill:#1A476F"/>
	<circle cx="1554.92" cy="1567.47" r="22.03" style="fill:none;stroke:#1A476F;stroke-width:8.64"/>
	<circle cx="1567.17" cy="1561.77" r="26.35" style="fill:#1A476F"/>
	<circle cx="1567.17" cy="1561.77" r="22.03" style="fill:none;stroke:#1A476F;stroke-width:8.64"/>
	<circle cx="1579.30" cy="1555.83" r="26.35" style="fill:#1A476F"/>
	<circle cx="1579.30" cy="1555.83" r="22.03" style="fill:none;stroke:#1A476F;stroke-width:8.64"/>
	<circle cx="1591.18" cy="1543.09" r="26.35" style="fill:#1A476F"/>
	<circle cx="1591.18" cy="1543.09" r="22.03" style="fill:none;stroke:#1A476F;stroke-width:8.64"/>
	<circle cx="1602.93" cy="1541.97" r="26.35" style="fill:#1A476F"/>
	<circle cx="1602.93" cy="1541.97" r="22.03" style="fill:none;stroke:#1A476F;stroke-width:8.64"/>
	<circle cx="1614.32" cy="1538.01" r="26.35" style="fill:#1A476F"/>
	<circle cx="1614.32" cy="1538.01" r="22.03" style="fill:none;stroke:#1A476F;stroke-width:8.64"/>
	<circle cx="1625.70" cy="1532.44" r="26.35" style="fill:#1A476F"/>
	<circle cx="1625.70" cy="1532.44" r="22.03" style="fill:none;stroke:#1A476F;stroke-width:8.64"/>
	<circle cx="1636.84" cy="1525.02" r="26.35" style="fill:#1A476F"/>
	<circle cx="1636.84" cy="1525.02" r="22.03" style="fill:none;stroke:#1A476F;stroke-width:8.64"/>
	<circle cx="1647.86" cy="1520.19" r="26.35" style="fill:#1A476F"/>
	<circle cx="1647.86" cy="1520.19" r="22.03" style="fill:none;stroke:#1A476F;stroke-width:8.64"/>
	<circle cx="1658.62" cy="1519.33" r="26.35" style="fill:#1A476F"/>
	<circle cx="1658.62" cy="1519.33" r="22.03" style="fill:none;stroke:#1A476F;stroke-width:8.64"/>
	<circle cx="1669.26" cy="1505.47" r="26.35" style="fill:#1A476F"/>
	<circle cx="1669.26" cy="1505.47" r="22.03" style="fill:none;stroke:#1A476F;stroke-width:8.64"/>
	<circle cx="1679.91" cy="1500.64" r="26.35" style="fill:#1A476F"/>
	<circle cx="1679.91" cy="1500.64" r="22.03" style="fill:none;stroke:#1A476F;stroke-width:8.64"/>
	<circle cx="1690.30" cy="1500.27" r="26.35" style="fill:#1A476F"/>
	<circle cx="1690.30" cy="1500.27" r="22.03" style="fill:none;stroke:#1A476F;stroke-width:8.64"/>
	<circle cx="1700.57" cy="1493.21" r="26.35" style="fill:#1A476F"/>
	<circle cx="1700.57" cy="1493.21" r="22.03" style="fill:none;stroke:#1A476F;stroke-width:8.64"/>
	<circle cx="1710.72" cy="1490.99" r="26.35" style="fill:#1A476F"/>
	<circle cx="1710.72" cy="1490.99" r="22.03" style="fill:none;stroke:#1A476F;stroke-width:8.64"/>
	<circle cx="1720.74" cy="1490.12" r="26.35" style="fill:#1A476F"/>
	<circle cx="1720.74" cy="1490.12" r="22.03" style="fill:none;stroke:#1A476F;stroke-width:8.64"/>
	<circle cx="1730.64" cy="1488.39" r="26.35" style="fill:#1A476F"/>
	<circle cx="1730.64" cy="1488.39" r="22.03" style="fill:none;stroke:#1A476F;stroke-width:8.64"/>
	<circle cx="1740.54" cy="1487.52" r="26.35" style="fill:#1A476F"/>
	<circle cx="1740.54" cy="1487.52" r="22.03" style="fill:none;stroke:#1A476F;stroke-width:8.64"/>
	<circle cx="1750.32" cy="1475.52" r="26.35" style="fill:#1A476F"/>
	<circle cx="1750.32" cy="1475.52" r="22.03" style="fill:none;stroke:#1A476F;stroke-width:8.64"/>
	<circle cx="1759.85" cy="1460.67" r="26.35" style="fill:#1A476F"/>
	<circle cx="1759.85" cy="1460.67" r="22.03" style="fill:none;stroke:#1A476F;stroke-width:8.64"/>
	<circle cx="1769.50" cy="1456.95" r="26.35" style="fill:#1A476F"/>
	<circle cx="1769.50" cy="1456.95" r="22.03" style="fill:none;stroke:#1A476F;stroke-width:8.64"/>
	<circle cx="1778.91" cy="1456.34" r="26.35" style="fill:#1A476F"/>
	<circle cx="1778.91" cy="1456.34" r="22.03" style="fill:none;stroke:#1A476F;stroke-width:8.64"/>
	<circle cx="1788.31" cy="1452.75" r="26.35" style="fill:#1A476F"/>
	<circle cx="1788.31" cy="1452.75" r="22.03" style="fill:none;stroke:#1A476F;stroke-width:8.64"/>
	<circle cx="1797.59" cy="1443.71" r="26.35" style="fill:#1A476F"/>
	<circle cx="1797.59" cy="1443.71" r="22.03" style="fill:none;stroke:#1A476F;stroke-width:8.64"/>
	<circle cx="1806.75" cy="1439.75" r="26.35" style="fill:#1A476F"/>
	<circle cx="1806.75" cy="1439.75" r="22.03" style="fill:none;stroke:#1A476F;stroke-width:8.64"/>
	<circle cx="1815.91" cy="1413.64" r="26.35" style="fill:#1A476F"/>
	<circle cx="1815.91" cy="1413.64" r="22.03" style="fill:none;stroke:#1A476F;stroke-width:8.64"/>
	<circle cx="1825.07" cy="1412.03" r="26.35" style="fill:#1A476F"/>
	<circle cx="1825.07" cy="1412.03" r="22.03" style="fill:none;stroke:#1A476F;stroke-width:8.64"/>
	<circle cx="1833.98" cy="1409.43" r="26.35" style="fill:#1A476F"/>
	<circle cx="1833.98" cy="1409.43" r="22.03" style="fill:none;stroke:#1A476F;stroke-width:8.64"/>
	<circle cx="1843.01" cy="1403.37" r="26.35" style="fill:#1A476F"/>
	<circle cx="1843.01" cy="1403.37" r="22.03" style="fill:none;stroke:#1A476F;stroke-width:8.64"/>
	<circle cx="1851.80" cy="1400.52" r="26.35" style="fill:#1A476F"/>
	<circle cx="1851.80" cy="1400.52" r="22.03" style="fill:none;stroke:#1A476F;stroke-width:8.64"/>
	<circle cx="1860.71" cy="1394.21" r="26.35" style="fill:#1A476F"/>
	<circle cx="1860.71" cy="1394.21" r="22.03" style="fill:none;stroke:#1A476F;stroke-width:8.64"/>
	<circle cx="1869.49" cy="1387.65" r="26.35" style="fill:#1A476F"/>
	<circle cx="1869.49" cy="1387.65" r="22.03" style="fill:none;stroke:#1A476F;stroke-width:8.64"/>
	<circle cx="1878.15" cy="1382.83" r="26.35" style="fill:#1A476F"/>
	<circle cx="1878.15" cy="1382.83" r="22.03" style="fill:none;stroke:#1A476F;stroke-width:8.64"/>
	<circle cx="1886.82" cy="1372.80" r="26.35" style="fill:#1A476F"/>
	<circle cx="1886.82" cy="1372.80" r="22.03" style="fill:none;stroke:#1A476F;stroke-width:8.64"/>
	<circle cx="1895.48" cy="1371.44" r="26.35" style="fill:#1A476F"/>
	<circle cx="1895.48" cy="1371.44" r="22.03" style="fill:none;stroke:#1A476F;stroke-width:8.64"/>
	<circle cx="1904.02" cy="1364.88" r="26.35" style="fill:#1A476F"/>
	<circle cx="1904.02" cy="1364.88" r="22.03" style="fill:none;stroke:#1A476F;stroke-width:8.64"/>
	<circle cx="1912.56" cy="1364.02" r="26.35" style="fill:#1A476F"/>
	<circle cx="1912.56" cy="1364.02" r="22.03" style="fill:none;stroke:#1A476F;stroke-width:8.64"/>
	<circle cx="1921.10" cy="1357.83" r="26.35" style="fill:#1A476F"/>
	<circle cx="1921.10" cy="1357.83" r="22.03" style="fill:none;stroke:#1A476F;stroke-width:8.64"/>
	<circle cx="1929.51" cy="1338.89" r="26.35" style="fill:#1A476F"/>
	<circle cx="1929.51" cy="1338.89" r="22.03" style="fill:none;stroke:#1A476F;stroke-width:8.64"/>
	<circle cx="1937.93" cy="1332.33" r="26.35" style="fill:#1A476F"/>
	<circle cx="1937.93" cy="1332.33" r="22.03" style="fill:none;stroke:#1A476F;stroke-width:8.64"/>
	<circle cx="1946.22" cy="1325.78" r="26.35" style="fill:#1A476F"/>
	<circle cx="1946.22" cy="1325.78" r="22.03" style="fill:none;stroke:#1A476F;stroke-width:8.64"/>
	<circle cx="1954.63" cy="1314.64" r="26.35" style="fill:#1A476F"/>
	<circle cx="1954.63" cy="1314.64" r="22.03" style="fill:none;stroke:#1A476F;stroke-width:8.64"/>
	<circle cx="1962.92" cy="1313.65" r="26.35" style="fill:#1A476F"/>
	<circle cx="1962.92" cy="1313.65" r="22.03" style="fill:none;stroke:#1A476F;stroke-width:8.64"/>
	<circle cx="1971.21" cy="1311.91" r="26.35" style="fill:#1A476F"/>
	<circle cx="1971.21" cy="1311.91" r="22.03" style="fill:none;stroke:#1A476F;stroke-width:8.64"/>
	<circle cx="1979.51" cy="1307.21" r="26.35" style="fill:#1A476F"/>
	<circle cx="1979.51" cy="1307.21" r="22.03" style="fill:none;stroke:#1A476F;stroke-width:8.64"/>
	<circle cx="1987.67" cy="1301.40" r="26.35" style="fill:#1A476F"/>
	<circle cx="1987.67" cy="1301.40" r="22.03" style="fill:none;stroke:#1A476F;stroke-width:8.64"/>
	<circle cx="1995.84" cy="1292.36" r="26.35" style="fill:#1A476F"/>
	<circle cx="1995.84" cy="1292.36" r="22.03" style="fill:none;stroke:#1A476F;stroke-width:8.64"/>
	<circle cx="2004.01" cy="1291.50" r="26.35" style="fill:#1A476F"/>
	<circle cx="2004.01" cy="1291.50" r="22.03" style="fill:none;stroke:#1A476F;stroke-width:8.64"/>
	<circle cx="2012.18" cy="1284.19" r="26.35" style="fill:#1A476F"/>
	<circle cx="2012.18" cy="1284.19" r="22.03" style="fill:none;stroke:#1A476F;stroke-width:8.64"/>
	<circle cx="2020.34" cy="1275.90" r="26.35" style="fill:#1A476F"/>
	<circle cx="2020.34" cy="1275.90" r="22.03" style="fill:none;stroke:#1A476F;stroke-width:8.64"/>
	<circle cx="2028.39" cy="1275.90" r="26.35" style="fill:#1A476F"/>
	<circle cx="2028.39" cy="1275.90" r="22.03" style="fill:none;stroke:#1A476F;stroke-width:8.64"/>
	<circle cx="2036.55" cy="1268.97" r="26.35" style="fill:#1A476F"/>
	<circle cx="2036.55" cy="1268.97" r="22.03" style="fill:none;stroke:#1A476F;stroke-width:8.64"/>
	<circle cx="2044.60" cy="1267.98" r="26.35" style="fill:#1A476F"/>
	<circle cx="2044.60" cy="1267.98" r="22.03" style="fill:none;stroke:#1A476F;stroke-width:8.64"/>
	<circle cx="2052.64" cy="1264.64" r="26.35" style="fill:#1A476F"/>
	<circle cx="2052.64" cy="1264.64" r="22.03" style="fill:none;stroke:#1A476F;stroke-width:8.64"/>
	<circle cx="2060.69" cy="1251.65" r="26.35" style="fill:#1A476F"/>
	<circle cx="2060.69" cy="1251.65" r="22.03" style="fill:none;stroke:#1A476F;stroke-width:8.64"/>
	<circle cx="2068.73" cy="1248.43" r="26.35" style="fill:#1A476F"/>
	<circle cx="2068.73" cy="1248.43" r="22.03" style="fill:none;stroke:#1A476F;stroke-width:8.64"/>
	<circle cx="2076.77" cy="1238.03" r="26.35" style="fill:#1A476F"/>
	<circle cx="2076.77" cy="1238.03" r="22.03" style="fill:none;stroke:#1A476F;stroke-width:8.64"/>
	<circle cx="2084.82" cy="1236.30" r="26.35" style="fill:#1A476F"/>
	<circle cx="2084.82" cy="1236.30" r="22.03" style="fill:none;stroke:#1A476F;stroke-width:8.64"/>
	<circle cx="2092.86" cy="1234.57" r="26.35" style="fill:#1A476F"/>
	<circle cx="2092.86" cy="1234.57" r="22.03" style="fill:none;stroke:#1A476F;stroke-width:8.64"/>
	<circle cx="2100.90" cy="1220.71" r="26.35" style="fill:#1A476F"/>
	<circle cx="2100.90" cy="1220.71" r="22.03" style="fill:none;stroke:#1A476F;stroke-width:8.64"/>
	<circle cx="2108.82" cy="1217.12" r="26.35" style="fill:#1A476F"/>
	<circle cx="2108.82" cy="1217.12" r="22.03" style="fill:none;stroke:#1A476F;stroke-width:8.64"/>
	<circle cx="2116.87" cy="1211.92" r="26.35" style="fill:#1A476F"/>
	<circle cx="2116.87" cy="1211.92" r="22.03" style="fill:none;stroke:#1A476F;stroke-width:8.64"/>
	<circle cx="2124.91" cy="1211.92" r="26.35" style="fill:#1A476F"/>
	<circle cx="2124.91" cy="1211.92" r="22.03" style="fill:none;stroke:#1A476F;stroke-width:8.64"/>
	<circle cx="2132.83" cy="1203.26" r="26.35" style="fill:#1A476F"/>
	<circle cx="2132.83" cy="1203.26" r="22.03" style="fill:none;stroke:#1A476F;stroke-width:8.64"/>
	<circle cx="2140.88" cy="1197.19" r="26.35" style="fill:#1A476F"/>
	<circle cx="2140.88" cy="1197.19" r="22.03" style="fill:none;stroke:#1A476F;stroke-width:8.64"/>
	<circle cx="2148.92" cy="1189.89" r="26.35" style="fill:#1A476F"/>
	<circle cx="2148.92" cy="1189.89" r="22.03" style="fill:none;stroke:#1A476F;stroke-width:8.64"/>
	<circle cx="2156.84" cy="1189.89" r="26.35" style="fill:#1A476F"/>
	<circle cx="2156.84" cy="1189.89" r="22.03" style="fill:none;stroke:#1A476F;stroke-width:8.64"/>
	<circle cx="2164.88" cy="1172.94" r="26.35" style="fill:#1A476F"/>
	<circle cx="2164.88" cy="1172.94" r="22.03" style="fill:none;stroke:#1A476F;stroke-width:8.64"/>
	<circle cx="2172.93" cy="1154.99" r="26.35" style="fill:#1A476F"/>
	<circle cx="2172.93" cy="1154.99" r="22.03" style="fill:none;stroke:#1A476F;stroke-width:8.64"/>
	<circle cx="2180.97" cy="1154.13" r="26.35" style="fill:#1A476F"/>
	<circle cx="2180.97" cy="1154.13" r="22.03" style="fill:none;stroke:#1A476F;stroke-width:8.64"/>
	<circle cx="2189.01" cy="1151.65" r="26.35" style="fill:#1A476F"/>
	<circle cx="2189.01" cy="1151.65" r="22.03" style="fill:none;stroke:#1A476F;stroke-width:8.64"/>
	<circle cx="2197.06" cy="1145.96" r="26.35" style="fill:#1A476F"/>
	<circle cx="2197.06" cy="1145.96" r="22.03" style="fill:none;stroke:#1A476F;stroke-width:8.64"/>
	<circle cx="2205.10" cy="1141.13" r="26.35" style="fill:#1A476F"/>
	<circle cx="2205.10" cy="1141.13" r="22.03" style="fill:none;stroke:#1A476F;stroke-width:8.64"/>
	<circle cx="2213.15" cy="1132.84" r="26.35" style="fill:#1A476F"/>
	<circle cx="2213.15" cy="1132.84" r="22.03" style="fill:none;stroke:#1A476F;stroke-width:8.64"/>
	<circle cx="2221.31" cy="1132.10" r="26.35" style="fill:#1A476F"/>
	<circle cx="2221.31" cy="1132.10" r="22.03" style="fill:none;stroke:#1A476F;stroke-width:8.64"/>
	<circle cx="2229.36" cy="1128.14" r="26.35" style="fill:#1A476F"/>
	<circle cx="2229.36" cy="1128.14" r="22.03" style="fill:none;stroke:#1A476F;stroke-width:8.64"/>
	<circle cx="2237.52" cy="1127.65" r="26.35" style="fill:#1A476F"/>
	<circle cx="2237.52" cy="1127.65" r="22.03" style="fill:none;stroke:#1A476F;stroke-width:8.64"/>
	<circle cx="2245.69" cy="1125.54" r="26.35" style="fill:#1A476F"/>
	<circle cx="2245.69" cy="1125.54" r="22.03" style="fill:none;stroke:#1A476F;stroke-width:8.64"/>
	<circle cx="2253.86" cy="1114.28" r="26.35" style="fill:#1A476F"/>
	<circle cx="2253.86" cy="1114.28" r="22.03" style="fill:none;stroke:#1A476F;stroke-width:8.64"/>
	<circle cx="2262.03" cy="1114.28" r="26.35" style="fill:#1A476F"/>
	<circle cx="2262.03" cy="1114.28" r="22.03" style="fill:none;stroke:#1A476F;stroke-width:8.64"/>
	<circle cx="2270.32" cy="1113.41" r="26.35" style="fill:#1A476F"/>
	<circle cx="2270.32" cy="1113.41" r="22.03" style="fill:none;stroke:#1A476F;stroke-width:8.64"/>
	<circle cx="2278.49" cy="1110.81" r="26.35" style="fill:#1A476F"/>
	<circle cx="2278.49" cy="1110.81" r="22.03" style="fill:none;stroke:#1A476F;stroke-width:8.64"/>
	<circle cx="2286.78" cy="1096.09" r="26.35" style="fill:#1A476F"/>
	<circle cx="2286.78" cy="1096.09" r="22.03" style="fill:none;stroke:#1A476F;stroke-width:8.64"/>
	<circle cx="2295.07" cy="1071.09" r="26.35" style="fill:#1A476F"/>
	<circle cx="2295.07" cy="1071.09" r="22.03" style="fill:none;stroke:#1A476F;stroke-width:8.64"/>
	<circle cx="2303.48" cy="1069.85" r="26.35" style="fill:#1A476F"/>
	<circle cx="2303.48" cy="1069.85" r="22.03" style="fill:none;stroke:#1A476F;stroke-width:8.64"/>
	<circle cx="2311.90" cy="1069.36" r="26.35" style="fill:#1A476F"/>
	<circle cx="2311.90" cy="1069.36" r="22.03" style="fill:none;stroke:#1A476F;stroke-width:8.64"/>
	<circle cx="2320.19" cy="1068.61" r="26.35" style="fill:#1A476F"/>
	<circle cx="2320.19" cy="1068.61" r="22.03" style="fill:none;stroke:#1A476F;stroke-width:8.64"/>
	<circle cx="2328.73" cy="1066.88" r="26.35" style="fill:#1A476F"/>
	<circle cx="2328.73" cy="1066.88" r="22.03" style="fill:none;stroke:#1A476F;stroke-width:8.64"/>
	<circle cx="2337.14" cy="1064.65" r="26.35" style="fill:#1A476F"/>
	<circle cx="2337.14" cy="1064.65" r="22.03" style="fill:none;stroke:#1A476F;stroke-width:8.64"/>
	<circle cx="2345.68" cy="1060.32" r="26.35" style="fill:#1A476F"/>
	<circle cx="2345.68" cy="1060.32" r="22.03" style="fill:none;stroke:#1A476F;stroke-width:8.64"/>
	<circle cx="2354.34" cy="1059.83" r="26.35" style="fill:#1A476F"/>
	<circle cx="2354.34" cy="1059.83" r="22.03" style="fill:none;stroke:#1A476F;stroke-width:8.64"/>
	<circle cx="2362.88" cy="1049.06" r="26.35" style="fill:#1A476F"/>
	<circle cx="2362.88" cy="1049.06" r="22.03" style="fill:none;stroke:#1A476F;stroke-width:8.64"/>
	<circle cx="2371.55" cy="1049.06" r="26.35" style="fill:#1A476F"/>
	<circle cx="2371.55" cy="1049.06" r="22.03" style="fill:none;stroke:#1A476F;stroke-width:8.64"/>
	<circle cx="2380.33" cy="1029.26" r="26.35" style="fill:#1A476F"/>
	<circle cx="2380.33" cy="1029.26" r="22.03" style="fill:none;stroke:#1A476F;stroke-width:8.64"/>
	<circle cx="2389.12" cy="1029.26" r="26.35" style="fill:#1A476F"/>
	<circle cx="2389.12" cy="1029.26" r="22.03" style="fill:none;stroke:#1A476F;stroke-width:8.64"/>
	<circle cx="2397.90" cy="1022.95" r="26.35" style="fill:#1A476F"/>
	<circle cx="2397.90" cy="1022.95" r="22.03" style="fill:none;stroke:#1A476F;stroke-width:8.64"/>
	<circle cx="2406.81" cy="1018.99" r="26.35" style="fill:#1A476F"/>
	<circle cx="2406.81" cy="1018.99" r="22.03" style="fill:none;stroke:#1A476F;stroke-width:8.64"/>
	<circle cx="2415.72" cy="1013.30" r="26.35" style="fill:#1A476F"/>
	<circle cx="2415.72" cy="1013.30" r="22.03" style="fill:none;stroke:#1A476F;stroke-width:8.64"/>
	<circle cx="2424.76" cy="1013.30" r="26.35" style="fill:#1A476F"/>
	<circle cx="2424.76" cy="1013.30" r="22.03" style="fill:none;stroke:#1A476F;stroke-width:8.64"/>
	<circle cx="2433.79" cy="1012.55" r="26.35" style="fill:#1A476F"/>
	<circle cx="2433.79" cy="1012.55" r="22.03" style="fill:none;stroke:#1A476F;stroke-width:8.64"/>
	<circle cx="2442.95" cy="1000.30" r="26.35" style="fill:#1A476F"/>
	<circle cx="2442.95" cy="1000.30" r="22.03" style="fill:none;stroke:#1A476F;stroke-width:8.64"/>
	<circle cx="2452.11" cy="996.34" r="26.35" style="fill:#1A476F"/>
	<circle cx="2452.11" cy="996.34" r="22.03" style="fill:none;stroke:#1A476F;stroke-width:8.64"/>
	<circle cx="2461.51" cy="982.23" r="26.35" style="fill:#1A476F"/>
	<circle cx="2461.51" cy="982.23" r="22.03" style="fill:none;stroke:#1A476F;stroke-width:8.64"/>
	<circle cx="2470.79" cy="980.75" r="26.35" style="fill:#1A476F"/>
	<circle cx="2470.79" cy="980.75" r="22.03" style="fill:none;stroke:#1A476F;stroke-width:8.64"/>
	<circle cx="2480.32" cy="955.50" r="26.35" style="fill:#1A476F"/>
	<circle cx="2480.32" cy="955.50" r="22.03" style="fill:none;stroke:#1A476F;stroke-width:8.64"/>
	<circle cx="2489.85" cy="945.11" r="26.35" style="fill:#1A476F"/>
	<circle cx="2489.85" cy="945.11" r="22.03" style="fill:none;stroke:#1A476F;stroke-width:8.64"/>
	<circle cx="2499.50" cy="944.24" r="26.35" style="fill:#1A476F"/>
	<circle cx="2499.50" cy="944.24" r="22.03" style="fill:none;stroke:#1A476F;stroke-width:8.64"/>
	<circle cx="2509.16" cy="944.24" r="26.35" style="fill:#1A476F"/>
	<circle cx="2509.16" cy="944.24" r="22.03" style="fill:none;stroke:#1A476F;stroke-width:8.64"/>
	<circle cx="2519.05" cy="942.51" r="26.35" style="fill:#1A476F"/>
	<circle cx="2519.05" cy="942.51" r="22.03" style="fill:none;stroke:#1A476F;stroke-width:8.64"/>
	<circle cx="2528.96" cy="938.05" r="26.35" style="fill:#1A476F"/>
	<circle cx="2528.96" cy="938.05" r="22.03" style="fill:none;stroke:#1A476F;stroke-width:8.64"/>
	<circle cx="2538.98" cy="933.48" r="26.35" style="fill:#1A476F"/>
	<circle cx="2538.98" cy="933.48" r="22.03" style="fill:none;stroke:#1A476F;stroke-width:8.64"/>
	<circle cx="2549.13" cy="910.83" r="26.35" style="fill:#1A476F"/>
	<circle cx="2549.13" cy="910.83" r="22.03" style="fill:none;stroke:#1A476F;stroke-width:8.64"/>
	<circle cx="2559.52" cy="900.31" r="26.35" style="fill:#1A476F"/>
	<circle cx="2559.52" cy="900.31" r="22.03" style="fill:none;stroke:#1A476F;stroke-width:8.64"/>
	<circle cx="2569.92" cy="882.98" r="26.35" style="fill:#1A476F"/>
	<circle cx="2569.92" cy="882.98" r="22.03" style="fill:none;stroke:#1A476F;stroke-width:8.64"/>
	<circle cx="2580.44" cy="882.98" r="26.35" style="fill:#1A476F"/>
	<circle cx="2580.44" cy="882.98" r="22.03" style="fill:none;stroke:#1A476F;stroke-width:8.64"/>
	<circle cx="2591.08" cy="878.16" r="26.35" style="fill:#1A476F"/>
	<circle cx="2591.08" cy="878.16" r="22.03" style="fill:none;stroke:#1A476F;stroke-width:8.64"/>
	<circle cx="2601.97" cy="869.99" r="26.35" style="fill:#1A476F"/>
	<circle cx="2601.97" cy="869.99" r="22.03" style="fill:none;stroke:#1A476F;stroke-width:8.64"/>
	<circle cx="2612.86" cy="864.42" r="26.35" style="fill:#1A476F"/>
	<circle cx="2612.86" cy="864.42" r="22.03" style="fill:none;stroke:#1A476F;stroke-width:8.64"/>
	<circle cx="2624.00" cy="864.30" r="26.35" style="fill:#1A476F"/>
	<circle cx="2624.00" cy="864.30" r="22.03" style="fill:none;stroke:#1A476F;stroke-width:8.64"/>
	<circle cx="2635.38" cy="859.47" r="26.35" style="fill:#1A476F"/>
	<circle cx="2635.38" cy="859.47" r="22.03" style="fill:none;stroke:#1A476F;stroke-width:8.64"/>
	<circle cx="2646.89" cy="857.00" r="26.35" style="fill:#1A476F"/>
	<circle cx="2646.89" cy="857.00" r="22.03" style="fill:none;stroke:#1A476F;stroke-width:8.64"/>
	<circle cx="2658.52" cy="846.48" r="26.35" style="fill:#1A476F"/>
	<circle cx="2658.52" cy="846.48" r="22.03" style="fill:none;stroke:#1A476F;stroke-width:8.64"/>
	<circle cx="2670.40" cy="842.52" r="26.35" style="fill:#1A476F"/>
	<circle cx="2670.40" cy="842.52" r="22.03" style="fill:none;stroke:#1A476F;stroke-width:8.64"/>
	<circle cx="2682.53" cy="829.52" r="26.35" style="fill:#1A476F"/>
	<circle cx="2682.53" cy="829.52" r="22.03" style="fill:none;stroke:#1A476F;stroke-width:8.64"/>
	<circle cx="2694.90" cy="817.89" r="26.35" style="fill:#1A476F"/>
	<circle cx="2694.90" cy="817.89" r="22.03" style="fill:none;stroke:#1A476F;stroke-width:8.64"/>
	<circle cx="2707.40" cy="817.89" r="26.35" style="fill:#1A476F"/>
	<circle cx="2707.40" cy="817.89" r="22.03" style="fill:none;stroke:#1A476F;stroke-width:8.64"/>
	<circle cx="2720.27" cy="811.58" r="26.35" style="fill:#1A476F"/>
	<circle cx="2720.27" cy="811.58" r="22.03" style="fill:none;stroke:#1A476F;stroke-width:8.64"/>
	<circle cx="2733.39" cy="809.97" r="26.35" style="fill:#1A476F"/>
	<circle cx="2733.39" cy="809.97" r="22.03" style="fill:none;stroke:#1A476F;stroke-width:8.64"/>
	<circle cx="2746.76" cy="802.54" r="26.35" style="fill:#1A476F"/>
	<circle cx="2746.76" cy="802.54" r="22.03" style="fill:none;stroke:#1A476F;stroke-width:8.64"/>
	<circle cx="2760.37" cy="792.52" r="26.35" style="fill:#1A476F"/>
	<circle cx="2760.37" cy="792.52" r="22.03" style="fill:none;stroke:#1A476F;stroke-width:8.64"/>
	<circle cx="2774.48" cy="787.82" r="26.35" style="fill:#1A476F"/>
	<circle cx="2774.48" cy="787.82" r="22.03" style="fill:none;stroke:#1A476F;stroke-width:8.64"/>
	<circle cx="2788.83" cy="783.73" r="26.35" style="fill:#1A476F"/>
	<circle cx="2788.83" cy="783.73" r="22.03" style="fill:none;stroke:#1A476F;stroke-width:8.64"/>
	<circle cx="2803.56" cy="781.26" r="26.35" style="fill:#1A476F"/>
	<circle cx="2803.56" cy="781.26" r="22.03" style="fill:none;stroke:#1A476F;stroke-width:8.64"/>
	<circle cx="2818.78" cy="771.61" r="26.35" style="fill:#1A476F"/>
	<circle cx="2818.78" cy="771.61" r="22.03" style="fill:none;stroke:#1A476F;stroke-width:8.64"/>
	<circle cx="2834.37" cy="762.57" r="26.35" style="fill:#1A476F"/>
	<circle cx="2834.37" cy="762.57" r="22.03" style="fill:none;stroke:#1A476F;stroke-width:8.64"/>
	<circle cx="2850.46" cy="761.71" r="26.35" style="fill:#1A476F"/>
	<circle cx="2850.46" cy="761.71" r="22.03" style="fill:none;stroke:#1A476F;stroke-width:8.64"/>
	<circle cx="2867.16" cy="760.34" r="26.35" style="fill:#1A476F"/>
	<circle cx="2867.16" cy="760.34" r="22.03" style="fill:none;stroke:#1A476F;stroke-width:8.64"/>
	<circle cx="2884.37" cy="744.75" r="26.35" style="fill:#1A476F"/>
	<circle cx="2884.37" cy="744.75" r="22.03" style="fill:none;stroke:#1A476F;stroke-width:8.64"/>
	<circle cx="2902.19" cy="723.84" r="26.35" style="fill:#1A476F"/>
	<circle cx="2902.19" cy="723.84" r="22.03" style="fill:none;stroke:#1A476F;stroke-width:8.64"/>
	<circle cx="2920.75" cy="709.11" r="26.35" style="fill:#1A476F"/>
	<circle cx="2920.75" cy="709.11" r="22.03" style="fill:none;stroke:#1A476F;stroke-width:8.64"/>
	<circle cx="2940.05" cy="703.42" r="26.35" style="fill:#1A476F"/>
	<circle cx="2940.05" cy="703.42" r="22.03" style="fill:none;stroke:#1A476F;stroke-width:8.64"/>
	<circle cx="2960.22" cy="688.69" r="26.35" style="fill:#1A476F"/>
	<circle cx="2960.22" cy="688.69" r="22.03" style="fill:none;stroke:#1A476F;stroke-width:8.64"/>
	<circle cx="2981.39" cy="688.32" r="26.35" style="fill:#1A476F"/>
	<circle cx="2981.39" cy="688.32" r="22.03" style="fill:none;stroke:#1A476F;stroke-width:8.64"/>
	<circle cx="3003.66" cy="682.13" r="26.35" style="fill:#1A476F"/>
	<circle cx="3003.66" cy="682.13" r="22.03" style="fill:none;stroke:#1A476F;stroke-width:8.64"/>
	<circle cx="3027.17" cy="672.23" r="26.35" style="fill:#1A476F"/>
	<circle cx="3027.17" cy="672.23" r="22.03" style="fill:none;stroke:#1A476F;stroke-width:8.64"/>
	<circle cx="3052.17" cy="651.32" r="26.35" style="fill:#1A476F"/>
	<circle cx="3052.17" cy="651.32" r="22.03" style="fill:none;stroke:#1A476F;stroke-width:8.64"/>
	<circle cx="3078.78" cy="646.61" r="26.35" style="fill:#1A476F"/>
	<circle cx="3078.78" cy="646.61" r="22.03" style="fill:none;stroke:#1A476F;stroke-width:8.64"/>
	<circle cx="3107.36" cy="642.16" r="26.35" style="fill:#1A476F"/>
	<circle cx="3107.36" cy="642.16" r="22.03" style="fill:none;stroke:#1A476F;stroke-width:8.64"/>
	<circle cx="3138.42" cy="632.63" r="26.35" style="fill:#1A476F"/>
	<circle cx="3138.42" cy="632.63" r="22.03" style="fill:none;stroke:#1A476F;stroke-width:8.64"/>
	<circle cx="3172.21" cy="624.34" r="26.35" style="fill:#1A476F"/>
	<circle cx="3172.21" cy="624.34" r="22.03" style="fill:none;stroke:#1A476F;stroke-width:8.64"/>
	<circle cx="3209.70" cy="618.65" r="26.35" style="fill:#1A476F"/>
	<circle cx="3209.70" cy="618.65" r="22.03" style="fill:none;stroke:#1A476F;stroke-width:8.64"/>
	<circle cx="3251.90" cy="616.17" r="26.35" style="fill:#1A476F"/>
	<circle cx="3251.90" cy="616.17" r="22.03" style="fill:none;stroke:#1A476F;stroke-width:8.64"/>
	<circle cx="3300.29" cy="595.26" r="26.35" style="fill:#1A476F"/>
	<circle cx="3300.29" cy="595.26" r="22.03" style="fill:none;stroke:#1A476F;stroke-width:8.64"/>
	<circle cx="3357.71" cy="592.66" r="26.35" style="fill:#1A476F"/>
	<circle cx="3357.71" cy="592.66" r="22.03" style="fill:none;stroke:#1A476F;stroke-width:8.64"/>
	<circle cx="3428.74" cy="508.75" r="26.35" style="fill:#1A476F"/>
	<circle cx="3428.74" cy="508.75" r="22.03" style="fill:none;stroke:#1A476F;stroke-width:8.64"/>
	<circle cx="3524.28" cy="354.43" r="26.35" style="fill:#1A476F"/>
	<circle cx="3524.28" cy="354.43" r="22.03" style="fill:none;stroke:#1A476F;stroke-width:8.64"/>
	<circle cx="3676.49" cy="282.04" r="26.35" style="fill:#1A476F"/>
	<circle cx="3676.49" cy="282.04" r="22.03" style="fill:none;stroke:#1A476F;stroke-width:8.64"/>
	<path d=" M573.21 2195.64 L3676.49 239.34" stroke-linejoin="round" style="fill:none;stroke:#2D6D66;stroke-width:8.64"/>
	<line x1="390.80" y1="2489.19" x2="390.80" y2="100.86" style="stroke:#000000;stroke-width:5.76"/>
	<line x1="390.80" y1="2270.76" x2="350.83" y2="2270.76" style="stroke:#000000;stroke-width:5.76"/>
	<text x="300.72" y="2270.76" style="font-family:'Helvetica';font-size:99.99px;fill:#000000" transform="rotate(-90 300.72,2270.76)" text-anchor="middle">-2000</text>
	<line x1="390.80" y1="1744.06" x2="350.83" y2="1744.06" style="stroke:#000000;stroke-width:5.76"/>
	<text x="300.72" y="1744.06" style="font-family:'Helvetica';font-size:99.99px;fill:#000000" transform="rotate(-90 300.72,1744.06)" text-anchor="middle">-1000</text>
	<line x1="390.80" y1="1217.49" x2="350.83" y2="1217.49" style="stroke:#000000;stroke-width:5.76"/>
	<text x="300.72" y="1217.49" style="font-family:'Helvetica';font-size:99.99px;fill:#000000" transform="rotate(-90 300.72,1217.49)" text-anchor="middle">0</text>
	<line x1="390.80" y1="690.79" x2="350.83" y2="690.79" style="stroke:#000000;stroke-width:5.76"/>
	<text x="300.72" y="690.79" style="font-family:'Helvetica';font-size:99.99px;fill:#000000" transform="rotate(-90 300.72,690.79)" text-anchor="middle">1000</text>
	<line x1="390.80" y1="164.22" x2="350.83" y2="164.22" style="stroke:#000000;stroke-width:5.76"/>
	<text x="300.72" y="164.22" style="font-family:'Helvetica';font-size:99.99px;fill:#000000" transform="rotate(-90 300.72,164.22)" text-anchor="middle">2000</text>
	<text x="190.71" y="1294.96" style="font-family:'Helvetica';font-size:99.99px;fill:#000000" transform="rotate(-90 190.71,1294.96)" text-anchor="middle">Residuals</text>
	<line x1="390.80" y1="2489.19" x2="3859.02" y2="2489.19" style="stroke:#000000;stroke-width:5.76"/>
	<line x1="454.16" y1="2489.19" x2="454.16" y2="2529.16" style="stroke:#000000;stroke-width:5.76"/>
	<text x="454.16" y="2619.14" style="font-family:'Helvetica';font-size:99.99px;fill:#000000" text-anchor="middle">-2000</text>
	<line x1="1289.47" y1="2489.19" x2="1289.47" y2="2529.16" style="stroke:#000000;stroke-width:5.76"/>
	<text x="1289.47" y="2619.14" style="font-family:'Helvetica';font-size:99.99px;fill:#000000" text-anchor="middle">-1000</text>
	<line x1="2124.91" y1="2489.19" x2="2124.91" y2="2529.16" style="stroke:#000000;stroke-width:5.76"/>
	<text x="2124.91" y="2619.14" style="font-family:'Helvetica';font-size:99.99px;fill:#000000" text-anchor="middle">0</text>
	<line x1="2960.35" y1="2489.19" x2="2960.35" y2="2529.16" style="stroke:#000000;stroke-width:5.76"/>
	<text x="2960.35" y="2619.14" style="font-family:'Helvetica';font-size:99.99px;fill:#000000" text-anchor="middle">1000</text>
	<line x1="3795.66" y1="2489.19" x2="3795.66" y2="2529.16" style="stroke:#000000;stroke-width:5.76"/>
	<text x="3795.66" y="2619.14" style="font-family:'Helvetica';font-size:99.99px;fill:#000000" text-anchor="middle">2000</text>
	<text x="2124.91" y="2729.16" style="font-family:'Helvetica';font-size:99.99px;fill:#000000" text-anchor="middle">Inverse Normal</text>
</svg>
