<?xml version="1.0" encoding="UTF-8" standalone="no"?>
<!-- This is a Stata 17.0 generated SVG file (http://www.stata.com) -->

<svg version="1.1" width="5.500in" height="4.000in" viewBox="0 0 3960 2880" xmlns="http://www.w3.org/2000/svg" xmlns:xlink="http://www.w3.org/1999/xlink">
	<desc>Stata Graph - Graph</desc>
	<rect x="0" y="0" width="3960" height="2880" style="fill:#EAF2F3;stroke:none"/>
	<rect x="0.00" y="0.00" width="3959.88" height="2880.00" style="fill:#EAF2F3"/>
	<rect x="2.88" y="2.88" width="3954.12" height="2874.24" style="fill:none;stroke:#EAF2F3;stroke-width:5.76"/>
	<rect x="390.80" y="100.86" width="3468.22" height="2388.33" style="fill:#FFFFFF"/>
	<rect x="393.68" y="103.74" width="3462.46" height="2382.57" style="fill:none;stroke:#FFFFFF;stroke-width:5.76"/>
	<line x1="390.80" y1="2270.76" x2="3859.02" y2="2270.76" style="stroke:#EAF2F3;stroke-width:8.64"/>
	<line x1="390.80" y1="1744.06" x2="3859.02" y2="1744.06" style="stroke:#EAF2F3;stroke-width:8.64"/>
	<line x1="390.80" y1="1217.49" x2="3859.02" y2="1217.49" style="stroke:#EAF2F3;stroke-width:8.64"/>
	<line x1="390.80" y1="690.79" x2="3859.02" y2="690.79" style="stroke:#EAF2F3;stroke-width:8.64"/>
	<line x1="390.80" y1="164.22" x2="3859.02" y2="164.22" style="stroke:#EAF2F3;stroke-width:8.64"/>
	<circle cx="1199.14" cy="1412.03" r="26.35" style="fill:#1A476F"/>
	<circle cx="1199.14" cy="1412.03" r="22.03" style="fill:none;stroke:#1A476F;stroke-width:8.64"/>
	<circle cx="2597.27" cy="1488.39" r="26.35" style="fill:#1A476F"/>
	<circle cx="2597.27" cy="1488.39" r="22.03" style="fill:none;stroke:#1A476F;stroke-width:8.64"/>
	<circle cx="1299.00" cy="1400.52" r="26.35" style="fill:#1A476F"/>
	<circle cx="1299.00" cy="1400.52" r="22.03" style="fill:none;stroke:#1A476F;stroke-width:8.64"/>
	<circle cx="1398.87" cy="1387.65" r="26.35" style="fill:#1A476F"/>
	<circle cx="1398.87" cy="1387.65" r="22.03" style="fill:none;stroke:#1A476F;stroke-width:8.64"/>
	<circle cx="1099.40" cy="1364.88" r="26.35" style="fill:#1A476F"/>
	<circle cx="1099.40" cy="1364.88" r="22.03" style="fill:none;stroke:#1A476F;stroke-width:8.64"/>
	<circle cx="1398.87" cy="1372.80" r="26.35" style="fill:#1A476F"/>
	<circle cx="1398.87" cy="1372.80" r="22.03" style="fill:none;stroke:#1A476F;stroke-width:8.64"/>
	<circle cx="1498.74" cy="1371.44" r="26.35" style="fill:#1A476F"/>
	<circle cx="1498.74" cy="1371.44" r="22.03" style="fill:none;stroke:#1A476F;stroke-width:8.64"/>
	<circle cx="999.53" cy="1338.89" r="26.35" style="fill:#1A476F"/>
	<circle cx="999.53" cy="1338.89" r="22.03" style="fill:none;stroke:#1A476F;stroke-width:8.64"/>
	<circle cx="2197.80" cy="1403.37" r="26.35" style="fill:#1A476F"/>
	<circle cx="2197.80" cy="1403.37" r="22.03" style="fill:none;stroke:#1A476F;stroke-width:8.64"/>
	<circle cx="1898.20" cy="1382.83" r="26.35" style="fill:#1A476F"/>
	<circle cx="1898.20" cy="1382.83" r="22.03" style="fill:none;stroke:#1A476F;stroke-width:8.64"/>
	<circle cx="1199.14" cy="1307.21" r="26.35" style="fill:#1A476F"/>
	<circle cx="1199.14" cy="1307.21" r="22.03" style="fill:none;stroke:#1A476F;stroke-width:8.64"/>
	<circle cx="1199.14" cy="1301.40" r="26.35" style="fill:#1A476F"/>
	<circle cx="1199.14" cy="1301.40" r="22.03" style="fill:none;stroke:#1A476F;stroke-width:8.64"/>
	<circle cx="1498.74" cy="1311.91" r="26.35" style="fill:#1A476F"/>
	<circle cx="1498.74" cy="1311.91" r="22.03" style="fill:none;stroke:#1A476F;stroke-width:8.64"/>
	<circle cx="2297.67" cy="1364.02" r="26.35" style="fill:#1A476F"/>
	<circle cx="2297.67" cy="1364.02" r="22.03" style="fill:none;stroke:#1A476F;stroke-width:8.64"/>
	<circle cx="1099.40" cy="1275.90" r="26.35" style="fill:#1A476F"/>
	<circle cx="1099.40" cy="1275.90" r="22.03" style="fill:none;stroke:#1A476F;stroke-width:8.64"/>
	<circle cx="1099.40" cy="1275.90" r="26.35" style="fill:#1A476F"/>
	<circle cx="1099.40" cy="1275.90" r="22.03" style="fill:none;stroke:#1A476F;stroke-width:8.64"/>
	<circle cx="799.80" cy="1251.65" r="26.35" style="fill:#1A476F"/>
	<circle cx="799.80" cy="1251.65" r="22.03" style="fill:none;stroke:#1A476F;stroke-width:8.64"/>
	<circle cx="1798.34" cy="1314.64" r="26.35" style="fill:#1A476F"/>
	<circle cx="1798.34" cy="1314.64" r="22.03" style="fill:none;stroke:#1A476F;stroke-width:8.64"/>
	<circle cx="1299.00" cy="1268.97" r="26.35" style="fill:#1A476F"/>
	<circle cx="1299.00" cy="1268.97" r="22.03" style="fill:none;stroke:#1A476F;stroke-width:8.64"/>
	<circle cx="2097.93" cy="1313.65" r="26.35" style="fill:#1A476F"/>
	<circle cx="2097.93" cy="1313.65" r="22.03" style="fill:none;stroke:#1A476F;stroke-width:8.64"/>
	<circle cx="2497.40" cy="1332.33" r="26.35" style="fill:#1A476F"/>
	<circle cx="2497.40" cy="1332.33" r="22.03" style="fill:none;stroke:#1A476F;stroke-width:8.64"/>
	<circle cx="2397.53" cy="1325.78" r="26.35" style="fill:#1A476F"/>
	<circle cx="2397.53" cy="1325.78" r="22.03" style="fill:none;stroke:#1A476F;stroke-width:8.64"/>
	<circle cx="2896.86" cy="1357.83" r="26.35" style="fill:#1A476F"/>
	<circle cx="2896.86" cy="1357.83" r="22.03" style="fill:none;stroke:#1A476F;stroke-width:8.64"/>
	<circle cx="2097.93" cy="1291.50" r="26.35" style="fill:#1A476F"/>
	<circle cx="2097.93" cy="1291.50" r="22.03" style="fill:none;stroke:#1A476F;stroke-width:8.64"/>
	<circle cx="1798.34" cy="1264.64" r="26.35" style="fill:#1A476F"/>
	<circle cx="1798.34" cy="1264.64" r="22.03" style="fill:none;stroke:#1A476F;stroke-width:8.64"/>
	<circle cx="2097.93" cy="1284.19" r="26.35" style="fill:#1A476F"/>
	<circle cx="2097.93" cy="1284.19" r="22.03" style="fill:none;stroke:#1A476F;stroke-width:8.64"/>
	<circle cx="999.53" cy="1197.19" r="26.35" style="fill:#1A476F"/>
	<circle cx="999.53" cy="1197.19" r="22.03" style="fill:none;stroke:#1A476F;stroke-width:8.64"/>
	<circle cx="2197.80" cy="1267.98" r="26.35" style="fill:#1A476F"/>
	<circle cx="2197.80" cy="1267.98" r="22.03" style="fill:none;stroke:#1A476F;stroke-width:8.64"/>
	<circle cx="1898.20" cy="1248.43" r="26.35" style="fill:#1A476F"/>
	<circle cx="1898.20" cy="1248.43" r="22.03" style="fill:none;stroke:#1A476F;stroke-width:8.64"/>
	<circle cx="999.53" cy="1189.89" r="26.35" style="fill:#1A476F"/>
	<circle cx="999.53" cy="1189.89" r="22.03" style="fill:none;stroke:#1A476F;stroke-width:8.64"/>
	<circle cx="999.53" cy="1189.89" r="26.35" style="fill:#1A476F"/>
	<circle cx="999.53" cy="1189.89" r="22.03" style="fill:none;stroke:#1A476F;stroke-width:8.64"/>
	<circle cx="1698.47" cy="1220.71" r="26.35" style="fill:#1A476F"/>
	<circle cx="1698.47" cy="1220.71" r="22.03" style="fill:none;stroke:#1A476F;stroke-width:8.64"/>
	<circle cx="2797.00" cy="1292.36" r="26.35" style="fill:#1A476F"/>
	<circle cx="2797.00" cy="1292.36" r="22.03" style="fill:none;stroke:#1A476F;stroke-width:8.64"/>
	<circle cx="1798.34" cy="1211.92" r="26.35" style="fill:#1A476F"/>
	<circle cx="1798.34" cy="1211.92" r="22.03" style="fill:none;stroke:#1A476F;stroke-width:8.64"/>
	<circle cx="1798.34" cy="1211.92" r="26.35" style="fill:#1A476F"/>
	<circle cx="1798.34" cy="1211.92" r="22.03" style="fill:none;stroke:#1A476F;stroke-width:8.64"/>
	<circle cx="2197.80" cy="1238.03" r="26.35" style="fill:#1A476F"/>
	<circle cx="2197.80" cy="1238.03" r="22.03" style="fill:none;stroke:#1A476F;stroke-width:8.64"/>
	<circle cx="1199.14" cy="1172.94" r="26.35" style="fill:#1A476F"/>
	<circle cx="1199.14" cy="1172.94" r="22.03" style="fill:none;stroke:#1A476F;stroke-width:8.64"/>
	<circle cx="1998.07" cy="1217.12" r="26.35" style="fill:#1A476F"/>
	<circle cx="1998.07" cy="1217.12" r="22.03" style="fill:none;stroke:#1A476F;stroke-width:8.64"/>
	<circle cx="2397.53" cy="1236.30" r="26.35" style="fill:#1A476F"/>
	<circle cx="2397.53" cy="1236.30" r="22.03" style="fill:none;stroke:#1A476F;stroke-width:8.64"/>
	<circle cx="2597.27" cy="1234.57" r="26.35" style="fill:#1A476F"/>
	<circle cx="2597.27" cy="1234.57" r="22.03" style="fill:none;stroke:#1A476F;stroke-width:8.64"/>
	<circle cx="1398.87" cy="1151.65" r="26.35" style="fill:#1A476F"/>
	<circle cx="1398.87" cy="1151.65" r="22.03" style="fill:none;stroke:#1A476F;stroke-width:8.64"/>
	<circle cx="1199.14" cy="1128.14" r="26.35" style="fill:#1A476F"/>
	<circle cx="1199.14" cy="1128.14" r="22.03" style="fill:none;stroke:#1A476F;stroke-width:8.64"/>
	<circle cx="1598.60" cy="1154.13" r="26.35" style="fill:#1A476F"/>
	<circle cx="1598.60" cy="1154.13" r="22.03" style="fill:none;stroke:#1A476F;stroke-width:8.64"/>
	<circle cx="1398.87" cy="1141.13" r="26.35" style="fill:#1A476F"/>
	<circle cx="1398.87" cy="1141.13" r="22.03" style="fill:none;stroke:#1A476F;stroke-width:8.64"/>
	<circle cx="1099.40" cy="1114.28" r="26.35" style="fill:#1A476F"/>
	<circle cx="1099.40" cy="1114.28" r="22.03" style="fill:none;stroke:#1A476F;stroke-width:8.64"/>
	<circle cx="1099.40" cy="1114.28" r="26.35" style="fill:#1A476F"/>
	<circle cx="1099.40" cy="1114.28" r="22.03" style="fill:none;stroke:#1A476F;stroke-width:8.64"/>
	<circle cx="2497.40" cy="1203.26" r="26.35" style="fill:#1A476F"/>
	<circle cx="2497.40" cy="1203.26" r="22.03" style="fill:none;stroke:#1A476F;stroke-width:8.64"/>
	<circle cx="1199.14" cy="1113.41" r="26.35" style="fill:#1A476F"/>
	<circle cx="1199.14" cy="1113.41" r="22.03" style="fill:none;stroke:#1A476F;stroke-width:8.64"/>
	<circle cx="1698.47" cy="1145.96" r="26.35" style="fill:#1A476F"/>
	<circle cx="1698.47" cy="1145.96" r="22.03" style="fill:none;stroke:#1A476F;stroke-width:8.64"/>
	<circle cx="1498.74" cy="1132.84" r="26.35" style="fill:#1A476F"/>
	<circle cx="1498.74" cy="1132.84" r="22.03" style="fill:none;stroke:#1A476F;stroke-width:8.64"/>
	<circle cx="1498.74" cy="1127.65" r="26.35" style="fill:#1A476F"/>
	<circle cx="1498.74" cy="1127.65" r="22.03" style="fill:none;stroke:#1A476F;stroke-width:8.64"/>
	<circle cx="1598.60" cy="1132.10" r="26.35" style="fill:#1A476F"/>
	<circle cx="1598.60" cy="1132.10" r="22.03" style="fill:none;stroke:#1A476F;stroke-width:8.64"/>
	<circle cx="1498.74" cy="1110.81" r="26.35" style="fill:#1A476F"/>
	<circle cx="1498.74" cy="1110.81" r="22.03" style="fill:none;stroke:#1A476F;stroke-width:8.64"/>
	<circle cx="2297.67" cy="1154.99" r="26.35" style="fill:#1A476F"/>
	<circle cx="2297.67" cy="1154.99" r="22.03" style="fill:none;stroke:#1A476F;stroke-width:8.64"/>
	<circle cx="1199.14" cy="1068.61" r="26.35" style="fill:#1A476F"/>
	<circle cx="1199.14" cy="1068.61" r="22.03" style="fill:none;stroke:#1A476F;stroke-width:8.64"/>
	<circle cx="899.66" cy="1049.06" r="26.35" style="fill:#1A476F"/>
	<circle cx="899.66" cy="1049.06" r="22.03" style="fill:none;stroke:#1A476F;stroke-width:8.64"/>
	<circle cx="1398.87" cy="1066.88" r="26.35" style="fill:#1A476F"/>
	<circle cx="1398.87" cy="1066.88" r="22.03" style="fill:none;stroke:#1A476F;stroke-width:8.64"/>
	<circle cx="2297.67" cy="1125.54" r="26.35" style="fill:#1A476F"/>
	<circle cx="2297.67" cy="1125.54" r="22.03" style="fill:none;stroke:#1A476F;stroke-width:8.64"/>
	<circle cx="1299.00" cy="1060.32" r="26.35" style="fill:#1A476F"/>
	<circle cx="1299.00" cy="1060.32" r="22.03" style="fill:none;stroke:#1A476F;stroke-width:8.64"/>
	<circle cx="999.53" cy="1029.26" r="26.35" style="fill:#1A476F"/>
	<circle cx="999.53" cy="1029.26" r="22.03" style="fill:none;stroke:#1A476F;stroke-width:8.64"/>
	<circle cx="999.53" cy="1029.26" r="26.35" style="fill:#1A476F"/>
	<circle cx="999.53" cy="1029.26" r="22.03" style="fill:none;stroke:#1A476F;stroke-width:8.64"/>
	<circle cx="1598.60" cy="1064.65" r="26.35" style="fill:#1A476F"/>
	<circle cx="1598.60" cy="1064.65" r="22.03" style="fill:none;stroke:#1A476F;stroke-width:8.64"/>
	<circle cx="1698.47" cy="1071.09" r="26.35" style="fill:#1A476F"/>
	<circle cx="1698.47" cy="1071.09" r="22.03" style="fill:none;stroke:#1A476F;stroke-width:8.64"/>
	<circle cx="2097.93" cy="1096.09" r="26.35" style="fill:#1A476F"/>
	<circle cx="2097.93" cy="1096.09" r="22.03" style="fill:none;stroke:#1A476F;stroke-width:8.64"/>
	<circle cx="1898.20" cy="1069.36" r="26.35" style="fill:#1A476F"/>
	<circle cx="1898.20" cy="1069.36" r="22.03" style="fill:none;stroke:#1A476F;stroke-width:8.64"/>
	<circle cx="1299.00" cy="1022.95" r="26.35" style="fill:#1A476F"/>
	<circle cx="1299.00" cy="1022.95" r="22.03" style="fill:none;stroke:#1A476F;stroke-width:8.64"/>
	<circle cx="1698.47" cy="1049.06" r="26.35" style="fill:#1A476F"/>
	<circle cx="1698.47" cy="1049.06" r="22.03" style="fill:none;stroke:#1A476F;stroke-width:8.64"/>
	<circle cx="2097.93" cy="1059.83" r="26.35" style="fill:#1A476F"/>
	<circle cx="2097.93" cy="1059.83" r="22.03" style="fill:none;stroke:#1A476F;stroke-width:8.64"/>
	<circle cx="1299.00" cy="1000.30" r="26.35" style="fill:#1A476F"/>
	<circle cx="1299.00" cy="1000.30" r="22.03" style="fill:none;stroke:#1A476F;stroke-width:8.64"/>
	<circle cx="1498.74" cy="1013.30" r="26.35" style="fill:#1A476F"/>
	<circle cx="1498.74" cy="1013.30" r="22.03" style="fill:none;stroke:#1A476F;stroke-width:8.64"/>
	<circle cx="1498.74" cy="1013.30" r="26.35" style="fill:#1A476F"/>
	<circle cx="1498.74" cy="1013.30" r="22.03" style="fill:none;stroke:#1A476F;stroke-width:8.64"/>
	<circle cx="2397.53" cy="1069.85" r="26.35" style="fill:#1A476F"/>
	<circle cx="2397.53" cy="1069.85" r="22.03" style="fill:none;stroke:#1A476F;stroke-width:8.64"/>
	<circle cx="1598.60" cy="1012.55" r="26.35" style="fill:#1A476F"/>
	<circle cx="1598.60" cy="1012.55" r="22.03" style="fill:none;stroke:#1A476F;stroke-width:8.64"/>
	<circle cx="899.66" cy="944.24" r="26.35" style="fill:#1A476F"/>
	<circle cx="899.66" cy="944.24" r="22.03" style="fill:none;stroke:#1A476F;stroke-width:8.64"/>
	<circle cx="899.66" cy="944.24" r="26.35" style="fill:#1A476F"/>
	<circle cx="899.66" cy="944.24" r="22.03" style="fill:none;stroke:#1A476F;stroke-width:8.64"/>
	<circle cx="1099.40" cy="942.51" r="26.35" style="fill:#1A476F"/>
	<circle cx="1099.40" cy="942.51" r="22.03" style="fill:none;stroke:#1A476F;stroke-width:8.64"/>
	<circle cx="1798.34" cy="980.75" r="26.35" style="fill:#1A476F"/>
	<circle cx="1798.34" cy="980.75" r="22.03" style="fill:none;stroke:#1A476F;stroke-width:8.64"/>
	<circle cx="2497.40" cy="1018.99" r="26.35" style="fill:#1A476F"/>
	<circle cx="2497.40" cy="1018.99" r="22.03" style="fill:none;stroke:#1A476F;stroke-width:8.64"/>
	<circle cx="1299.00" cy="933.48" r="26.35" style="fill:#1A476F"/>
	<circle cx="1299.00" cy="933.48" r="22.03" style="fill:none;stroke:#1A476F;stroke-width:8.64"/>
	<circle cx="1598.60" cy="945.11" r="26.35" style="fill:#1A476F"/>
	<circle cx="1598.60" cy="945.11" r="22.03" style="fill:none;stroke:#1A476F;stroke-width:8.64"/>
	<circle cx="1498.74" cy="938.05" r="26.35" style="fill:#1A476F"/>
	<circle cx="1498.74" cy="938.05" r="22.03" style="fill:none;stroke:#1A476F;stroke-width:8.64"/>
	<circle cx="2497.40" cy="996.34" r="26.35" style="fill:#1A476F"/>
	<circle cx="2497.40" cy="996.34" r="22.03" style="fill:none;stroke:#1A476F;stroke-width:8.64"/>
	<circle cx="2297.67" cy="982.23" r="26.35" style="fill:#1A476F"/>
	<circle cx="2297.67" cy="982.23" r="22.03" style="fill:none;stroke:#1A476F;stroke-width:8.64"/>
	<circle cx="1299.00" cy="910.83" r="26.35" style="fill:#1A476F"/>
	<circle cx="1299.00" cy="910.83" r="22.03" style="fill:none;stroke:#1A476F;stroke-width:8.64"/>
	<circle cx="1598.60" cy="900.31" r="26.35" style="fill:#1A476F"/>
	<circle cx="1598.60" cy="900.31" r="22.03" style="fill:none;stroke:#1A476F;stroke-width:8.64"/>
	<circle cx="999.53" cy="846.48" r="26.35" style="fill:#1A476F"/>
	<circle cx="999.53" cy="846.48" r="22.03" style="fill:none;stroke:#1A476F;stroke-width:8.64"/>
	<circle cx="1199.14" cy="859.47" r="26.35" style="fill:#1A476F"/>
	<circle cx="1199.14" cy="859.47" r="22.03" style="fill:none;stroke:#1A476F;stroke-width:8.64"/>
	<circle cx="1598.60" cy="878.16" r="26.35" style="fill:#1A476F"/>
	<circle cx="1598.60" cy="878.16" r="22.03" style="fill:none;stroke:#1A476F;stroke-width:8.64"/>
	<circle cx="2896.86" cy="955.50" r="26.35" style="fill:#1A476F"/>
	<circle cx="2896.86" cy="955.50" r="22.03" style="fill:none;stroke:#1A476F;stroke-width:8.64"/>
	<circle cx="1498.74" cy="857.00" r="26.35" style="fill:#1A476F"/>
	<circle cx="1498.74" cy="857.00" r="22.03" style="fill:none;stroke:#1A476F;stroke-width:8.64"/>
	<circle cx="1698.47" cy="869.99" r="26.35" style="fill:#1A476F"/>
	<circle cx="1698.47" cy="869.99" r="22.03" style="fill:none;stroke:#1A476F;stroke-width:8.64"/>
	<circle cx="1398.87" cy="842.52" r="26.35" style="fill:#1A476F"/>
	<circle cx="1398.87" cy="842.52" r="22.03" style="fill:none;stroke:#1A476F;stroke-width:8.64"/>
	<circle cx="1199.14" cy="829.52" r="26.35" style="fill:#1A476F"/>
	<circle cx="1199.14" cy="829.52" r="22.03" style="fill:none;stroke:#1A476F;stroke-width:8.64"/>
	<circle cx="1798.34" cy="864.42" r="26.35" style="fill:#1A476F"/>
	<circle cx="1798.34" cy="864.42" r="22.03" style="fill:none;stroke:#1A476F;stroke-width:8.64"/>
	<circle cx="899.66" cy="802.54" r="26.35" style="fill:#1A476F"/>
	<circle cx="899.66" cy="802.54" r="22.03" style="fill:none;stroke:#1A476F;stroke-width:8.64"/>
	<circle cx="2197.80" cy="882.98" r="26.35" style="fill:#1A476F"/>
	<circle cx="2197.80" cy="882.98" r="22.03" style="fill:none;stroke:#1A476F;stroke-width:8.64"/>
	<circle cx="2197.80" cy="882.98" r="26.35" style="fill:#1A476F"/>
	<circle cx="2197.80" cy="882.98" r="22.03" style="fill:none;stroke:#1A476F;stroke-width:8.64"/>
	<circle cx="1199.14" cy="817.89" r="26.35" style="fill:#1A476F"/>
	<circle cx="1199.14" cy="817.89" r="22.03" style="fill:none;stroke:#1A476F;stroke-width:8.64"/>
	<circle cx="1199.14" cy="817.89" r="26.35" style="fill:#1A476F"/>
	<circle cx="1199.14" cy="817.89" r="22.03" style="fill:none;stroke:#1A476F;stroke-width:8.64"/>
	<circle cx="2297.67" cy="864.30" r="26.35" style="fill:#1A476F"/>
	<circle cx="2297.67" cy="864.30" r="22.03" style="fill:none;stroke:#1A476F;stroke-width:8.64"/>
	<circle cx="1698.47" cy="809.97" r="26.35" style="fill:#1A476F"/>
	<circle cx="1698.47" cy="809.97" r="22.03" style="fill:none;stroke:#1A476F;stroke-width:8.64"/>
	<circle cx="1199.14" cy="762.57" r="26.35" style="fill:#1A476F"/>
	<circle cx="1199.14" cy="762.57" r="22.03" style="fill:none;stroke:#1A476F;stroke-width:8.64"/>
	<circle cx="1698.47" cy="787.82" r="26.35" style="fill:#1A476F"/>
	<circle cx="1698.47" cy="787.82" r="22.03" style="fill:none;stroke:#1A476F;stroke-width:8.64"/>
	<circle cx="1598.60" cy="781.26" r="26.35" style="fill:#1A476F"/>
	<circle cx="1598.60" cy="781.26" r="22.03" style="fill:none;stroke:#1A476F;stroke-width:8.64"/>
	<circle cx="1299.00" cy="761.71" r="26.35" style="fill:#1A476F"/>
	<circle cx="1299.00" cy="761.71" r="22.03" style="fill:none;stroke:#1A476F;stroke-width:8.64"/>
	<circle cx="1798.34" cy="783.73" r="26.35" style="fill:#1A476F"/>
	<circle cx="1798.34" cy="783.73" r="22.03" style="fill:none;stroke:#1A476F;stroke-width:8.64"/>
	<circle cx="2297.67" cy="811.58" r="26.35" style="fill:#1A476F"/>
	<circle cx="2297.67" cy="811.58" r="22.03" style="fill:none;stroke:#1A476F;stroke-width:8.64"/>
	<circle cx="1498.74" cy="744.75" r="26.35" style="fill:#1A476F"/>
	<circle cx="1498.74" cy="744.75" r="22.03" style="fill:none;stroke:#1A476F;stroke-width:8.64"/>
	<circle cx="1099.40" cy="703.42" r="26.35" style="fill:#1A476F"/>
	<circle cx="1099.40" cy="703.42" r="22.03" style="fill:none;stroke:#1A476F;stroke-width:8.64"/>
	<circle cx="899.66" cy="688.32" r="26.35" style="fill:#1A476F"/>
	<circle cx="899.66" cy="688.32" r="22.03" style="fill:none;stroke:#1A476F;stroke-width:8.64"/>
	<circle cx="2497.40" cy="792.52" r="26.35" style="fill:#1A476F"/>
	<circle cx="2497.40" cy="792.52" r="22.03" style="fill:none;stroke:#1A476F;stroke-width:8.64"/>
	<circle cx="1099.40" cy="688.69" r="26.35" style="fill:#1A476F"/>
	<circle cx="1099.40" cy="688.69" r="22.03" style="fill:none;stroke:#1A476F;stroke-width:8.64"/>
	<circle cx="2197.80" cy="760.34" r="26.35" style="fill:#1A476F"/>
	<circle cx="2197.80" cy="760.34" r="22.03" style="fill:none;stroke:#1A476F;stroke-width:8.64"/>
	<circle cx="2597.27" cy="771.61" r="26.35" style="fill:#1A476F"/>
	<circle cx="2597.27" cy="771.61" r="22.03" style="fill:none;stroke:#1A476F;stroke-width:8.64"/>
	<circle cx="1299.00" cy="672.23" r="26.35" style="fill:#1A476F"/>
	<circle cx="1299.00" cy="672.23" r="22.03" style="fill:none;stroke:#1A476F;stroke-width:8.64"/>
	<circle cx="2097.93" cy="723.84" r="26.35" style="fill:#1A476F"/>
	<circle cx="2097.93" cy="723.84" r="22.03" style="fill:none;stroke:#1A476F;stroke-width:8.64"/>
	<circle cx="699.93" cy="632.63" r="26.35" style="fill:#1A476F"/>
	<circle cx="699.93" cy="632.63" r="22.03" style="fill:none;stroke:#1A476F;stroke-width:8.64"/>
	<circle cx="2097.93" cy="709.11" r="26.35" style="fill:#1A476F"/>
	<circle cx="2097.93" cy="709.11" r="22.03" style="fill:none;stroke:#1A476F;stroke-width:8.64"/>
	<circle cx="1798.34" cy="682.13" r="26.35" style="fill:#1A476F"/>
	<circle cx="1798.34" cy="682.13" r="22.03" style="fill:none;stroke:#1A476F;stroke-width:8.64"/>
	<circle cx="899.66" cy="616.17" r="26.35" style="fill:#1A476F"/>
	<circle cx="899.66" cy="616.17" r="22.03" style="fill:none;stroke:#1A476F;stroke-width:8.64"/>
	<circle cx="1299.00" cy="642.16" r="26.35" style="fill:#1A476F"/>
	<circle cx="1299.00" cy="642.16" r="22.03" style="fill:none;stroke:#1A476F;stroke-width:8.64"/>
	<circle cx="1898.20" cy="651.32" r="26.35" style="fill:#1A476F"/>
	<circle cx="1898.20" cy="651.32" r="22.03" style="fill:none;stroke:#1A476F;stroke-width:8.64"/>
	<circle cx="1398.87" cy="618.65" r="26.35" style="fill:#1A476F"/>
	<circle cx="1398.87" cy="618.65" r="22.03" style="fill:none;stroke:#1A476F;stroke-width:8.64"/>
	<circle cx="1498.74" cy="595.26" r="26.35" style="fill:#1A476F"/>
	<circle cx="1498.74" cy="595.26" r="22.03" style="fill:none;stroke:#1A476F;stroke-width:8.64"/>
	<circle cx="1798.34" cy="592.66" r="26.35" style="fill:#1A476F"/>
	<circle cx="1798.34" cy="592.66" r="22.03" style="fill:none;stroke:#1A476F;stroke-width:8.64"/>
	<circle cx="2397.53" cy="624.34" r="26.35" style="fill:#1A476F"/>
	<circle cx="2397.53" cy="624.34" r="22.03" style="fill:none;stroke:#1A476F;stroke-width:8.64"/>
	<circle cx="2797.00" cy="646.61" r="26.35" style="fill:#1A476F"/>
	<circle cx="2797.00" cy="646.61" r="22.03" style="fill:none;stroke:#1A476F;stroke-width:8.64"/>
	<circle cx="1199.14" cy="508.75" r="26.35" style="fill:#1A476F"/>
	<circle cx="1199.14" cy="508.75" r="22.03" style="fill:none;stroke:#1A476F;stroke-width:8.64"/>
	<circle cx="1698.47" cy="354.43" r="26.35" style="fill:#1A476F"/>
	<circle cx="1698.47" cy="354.43" r="22.03" style="fill:none;stroke:#1A476F;stroke-width:8.64"/>
	<circle cx="3795.66" cy="282.04" r="26.35" style="fill:#1A476F"/>
	<circle cx="3795.66" cy="282.04" r="22.03" style="fill:none;stroke:#1A476F;stroke-width:8.64"/>
	<circle cx="2097.93" cy="2425.95" r="26.35" style="fill:#1A476F"/>
	<circle cx="2097.93" cy="2425.95" r="22.03" style="fill:none;stroke:#1A476F;stroke-width:8.64"/>
	<circle cx="2197.80" cy="2268.16" r="26.35" style="fill:#1A476F"/>
	<circle cx="2197.80" cy="2268.16" r="22.03" style="fill:none;stroke:#1A476F;stroke-width:8.64"/>
	<circle cx="2697.13" cy="2240.69" r="26.35" style="fill:#1A476F"/>
	<circle cx="2697.13" cy="2240.69" r="22.03" style="fill:none;stroke:#1A476F;stroke-width:8.64"/>
	<circle cx="1798.34" cy="2079.31" r="26.35" style="fill:#1A476F"/>
	<circle cx="1798.34" cy="2079.31" r="22.03" style="fill:none;stroke:#1A476F;stroke-width:8.64"/>
	<circle cx="1798.34" cy="2003.45" r="26.35" style="fill:#1A476F"/>
	<circle cx="1798.34" cy="2003.45" r="22.03" style="fill:none;stroke:#1A476F;stroke-width:8.64"/>
	<circle cx="1998.07" cy="1956.42" r="26.35" style="fill:#1A476F"/>
	<circle cx="1998.07" cy="1956.42" r="22.03" style="fill:none;stroke:#1A476F;stroke-width:8.64"/>
	<circle cx="1598.60" cy="1930.44" r="26.35" style="fill:#1A476F"/>
	<circle cx="1598.60" cy="1930.44" r="22.03" style="fill:none;stroke:#1A476F;stroke-width:8.64"/>
	<circle cx="1698.47" cy="1877.47" r="26.35" style="fill:#1A476F"/>
	<circle cx="1698.47" cy="1877.47" r="22.03" style="fill:none;stroke:#1A476F;stroke-width:8.64"/>
	<circle cx="1698.47" cy="1862.74" r="26.35" style="fill:#1A476F"/>
	<circle cx="1698.47" cy="1862.74" r="22.03" style="fill:none;stroke:#1A476F;stroke-width:8.64"/>
	<circle cx="1398.87" cy="1811.01" r="26.35" style="fill:#1A476F"/>
	<circle cx="1398.87" cy="1811.01" r="22.03" style="fill:none;stroke:#1A476F;stroke-width:8.64"/>
	<circle cx="2497.40" cy="1867.94" r="26.35" style="fill:#1A476F"/>
	<circle cx="2497.40" cy="1867.94" r="22.03" style="fill:none;stroke:#1A476F;stroke-width:8.64"/>
	<circle cx="1199.14" cy="1748.02" r="26.35" style="fill:#1A476F"/>
	<circle cx="1199.14" cy="1748.02" r="22.03" style="fill:none;stroke:#1A476F;stroke-width:8.64"/>
	<circle cx="1798.34" cy="1782.80" r="26.35" style="fill:#1A476F"/>
	<circle cx="1798.34" cy="1782.80" r="22.03" style="fill:none;stroke:#1A476F;stroke-width:8.64"/>
	<circle cx="899.66" cy="1721.05" r="26.35" style="fill:#1A476F"/>
	<circle cx="899.66" cy="1721.05" r="22.03" style="fill:none;stroke:#1A476F;stroke-width:8.64"/>
	<circle cx="1798.34" cy="1764.36" r="26.35" style="fill:#1A476F"/>
	<circle cx="1798.34" cy="1764.36" r="22.03" style="fill:none;stroke:#1A476F;stroke-width:8.64"/>
	<circle cx="1299.00" cy="1731.81" r="26.35" style="fill:#1A476F"/>
	<circle cx="1299.00" cy="1731.81" r="22.03" style="fill:none;stroke:#1A476F;stroke-width:8.64"/>
	<circle cx="1398.87" cy="1738.37" r="26.35" style="fill:#1A476F"/>
	<circle cx="1398.87" cy="1738.37" r="22.03" style="fill:none;stroke:#1A476F;stroke-width:8.64"/>
	<circle cx="1698.47" cy="1753.72" r="26.35" style="fill:#1A476F"/>
	<circle cx="1698.47" cy="1753.72" r="22.03" style="fill:none;stroke:#1A476F;stroke-width:8.64"/>
	<circle cx="1398.87" cy="1716.22" r="26.35" style="fill:#1A476F"/>
	<circle cx="1398.87" cy="1716.22" r="22.03" style="fill:none;stroke:#1A476F;stroke-width:8.64"/>
	<circle cx="1299.00" cy="1664.98" r="26.35" style="fill:#1A476F"/>
	<circle cx="1299.00" cy="1664.98" r="22.03" style="fill:none;stroke:#1A476F;stroke-width:8.64"/>
	<circle cx="1798.34" cy="1697.53" r="26.35" style="fill:#1A476F"/>
	<circle cx="1798.34" cy="1697.53" r="22.03" style="fill:none;stroke:#1A476F;stroke-width:8.64"/>
	<circle cx="1199.14" cy="1644.19" r="26.35" style="fill:#1A476F"/>
	<circle cx="1199.14" cy="1644.19" r="22.03" style="fill:none;stroke:#1A476F;stroke-width:8.64"/>
	<circle cx="1199.14" cy="1643.20" r="26.35" style="fill:#1A476F"/>
	<circle cx="1199.14" cy="1643.20" r="22.03" style="fill:none;stroke:#1A476F;stroke-width:8.64"/>
	<circle cx="1898.20" cy="1688.75" r="26.35" style="fill:#1A476F"/>
	<circle cx="1898.20" cy="1688.75" r="22.03" style="fill:none;stroke:#1A476F;stroke-width:8.64"/>
	<circle cx="1698.47" cy="1667.34" r="26.35" style="fill:#1A476F"/>
	<circle cx="1698.47" cy="1667.34" r="22.03" style="fill:none;stroke:#1A476F;stroke-width:8.64"/>
	<circle cx="999.53" cy="1608.55" r="26.35" style="fill:#1A476F"/>
	<circle cx="999.53" cy="1608.55" r="22.03" style="fill:none;stroke:#1A476F;stroke-width:8.64"/>
	<circle cx="1299.00" cy="1627.61" r="26.35" style="fill:#1A476F"/>
	<circle cx="1299.00" cy="1627.61" r="22.03" style="fill:none;stroke:#1A476F;stroke-width:8.64"/>
	<circle cx="1498.74" cy="1608.43" r="26.35" style="fill:#1A476F"/>
	<circle cx="1498.74" cy="1608.43" r="22.03" style="fill:none;stroke:#1A476F;stroke-width:8.64"/>
	<circle cx="1998.07" cy="1640.98" r="26.35" style="fill:#1A476F"/>
	<circle cx="1998.07" cy="1640.98" r="22.03" style="fill:none;stroke:#1A476F;stroke-width:8.64"/>
	<circle cx="1299.00" cy="1582.81" r="26.35" style="fill:#1A476F"/>
	<circle cx="1299.00" cy="1582.81" r="22.03" style="fill:none;stroke:#1A476F;stroke-width:8.64"/>
	<circle cx="999.53" cy="1555.83" r="26.35" style="fill:#1A476F"/>
	<circle cx="999.53" cy="1555.83" r="22.03" style="fill:none;stroke:#1A476F;stroke-width:8.64"/>
	<circle cx="1798.34" cy="1600.14" r="26.35" style="fill:#1A476F"/>
	<circle cx="1798.34" cy="1600.14" r="22.03" style="fill:none;stroke:#1A476F;stroke-width:8.64"/>
	<circle cx="1299.00" cy="1567.47" r="26.35" style="fill:#1A476F"/>
	<circle cx="1299.00" cy="1567.47" r="22.03" style="fill:none;stroke:#1A476F;stroke-width:8.64"/>
	<circle cx="1099.40" cy="1532.44" r="26.35" style="fill:#1A476F"/>
	<circle cx="1099.40" cy="1532.44" r="22.03" style="fill:none;stroke:#1A476F;stroke-width:8.64"/>
	<circle cx="1099.40" cy="1525.02" r="26.35" style="fill:#1A476F"/>
	<circle cx="1099.40" cy="1525.02" r="22.03" style="fill:none;stroke:#1A476F;stroke-width:8.64"/>
	<circle cx="1299.00" cy="1538.01" r="26.35" style="fill:#1A476F"/>
	<circle cx="1299.00" cy="1538.01" r="22.03" style="fill:none;stroke:#1A476F;stroke-width:8.64"/>
	<circle cx="1398.87" cy="1541.97" r="26.35" style="fill:#1A476F"/>
	<circle cx="1398.87" cy="1541.97" r="22.03" style="fill:none;stroke:#1A476F;stroke-width:8.64"/>
	<circle cx="1898.20" cy="1561.77" r="26.35" style="fill:#1A476F"/>
	<circle cx="1898.20" cy="1561.77" r="22.03" style="fill:none;stroke:#1A476F;stroke-width:8.64"/>
	<circle cx="2397.53" cy="1579.59" r="26.35" style="fill:#1A476F"/>
	<circle cx="2397.53" cy="1579.59" r="22.03" style="fill:none;stroke:#1A476F;stroke-width:8.64"/>
	<circle cx="799.80" cy="1475.52" r="26.35" style="fill:#1A476F"/>
	<circle cx="799.80" cy="1475.52" r="22.03" style="fill:none;stroke:#1A476F;stroke-width:8.64"/>
	<circle cx="1598.60" cy="1520.19" r="26.35" style="fill:#1A476F"/>
	<circle cx="1598.60" cy="1520.19" r="22.03" style="fill:none;stroke:#1A476F;stroke-width:8.64"/>
	<circle cx="1299.00" cy="1493.21" r="26.35" style="fill:#1A476F"/>
	<circle cx="1299.00" cy="1493.21" r="22.03" style="fill:none;stroke:#1A476F;stroke-width:8.64"/>
	<circle cx="1698.47" cy="1519.33" r="26.35" style="fill:#1A476F"/>
	<circle cx="1698.47" cy="1519.33" r="22.03" style="fill:none;stroke:#1A476F;stroke-width:8.64"/>
	<circle cx="799.80" cy="1460.67" r="26.35" style="fill:#1A476F"/>
	<circle cx="799.80" cy="1460.67" r="22.03" style="fill:none;stroke:#1A476F;stroke-width:8.64"/>
	<circle cx="1598.60" cy="1505.47" r="26.35" style="fill:#1A476F"/>
	<circle cx="1598.60" cy="1505.47" r="22.03" style="fill:none;stroke:#1A476F;stroke-width:8.64"/>
	<circle cx="2297.67" cy="1543.09" r="26.35" style="fill:#1A476F"/>
	<circle cx="2297.67" cy="1543.09" r="22.03" style="fill:none;stroke:#1A476F;stroke-width:8.64"/>
	<circle cx="1498.74" cy="1490.99" r="26.35" style="fill:#1A476F"/>
	<circle cx="1498.74" cy="1490.99" r="22.03" style="fill:none;stroke:#1A476F;stroke-width:8.64"/>
	<circle cx="999.53" cy="1456.34" r="26.35" style="fill:#1A476F"/>
	<circle cx="999.53" cy="1456.34" r="22.03" style="fill:none;stroke:#1A476F;stroke-width:8.64"/>
	<circle cx="1598.60" cy="1490.12" r="26.35" style="fill:#1A476F"/>
	<circle cx="1598.60" cy="1490.12" r="22.03" style="fill:none;stroke:#1A476F;stroke-width:8.64"/>
	<circle cx="999.53" cy="1443.71" r="26.35" style="fill:#1A476F"/>
	<circle cx="999.53" cy="1443.71" r="22.03" style="fill:none;stroke:#1A476F;stroke-width:8.64"/>
	<circle cx="1898.20" cy="1500.27" r="26.35" style="fill:#1A476F"/>
	<circle cx="1898.20" cy="1500.27" r="22.03" style="fill:none;stroke:#1A476F;stroke-width:8.64"/>
	<circle cx="1299.00" cy="1456.95" r="26.35" style="fill:#1A476F"/>
	<circle cx="1299.00" cy="1456.95" r="22.03" style="fill:none;stroke:#1A476F;stroke-width:8.64"/>
	<circle cx="1898.20" cy="1487.52" r="26.35" style="fill:#1A476F"/>
	<circle cx="1898.20" cy="1487.52" r="22.03" style="fill:none;stroke:#1A476F;stroke-width:8.64"/>
	<circle cx="699.93" cy="1409.43" r="26.35" style="fill:#1A476F"/>
	<circle cx="699.93" cy="1409.43" r="22.03" style="fill:none;stroke:#1A476F;stroke-width:8.64"/>
	<circle cx="2097.93" cy="1500.64" r="26.35" style="fill:#1A476F"/>
	<circle cx="2097.93" cy="1500.64" r="22.03" style="fill:none;stroke:#1A476F;stroke-width:8.64"/>
	<circle cx="699.93" cy="1394.21" r="26.35" style="fill:#1A476F"/>
	<circle cx="699.93" cy="1394.21" r="22.03" style="fill:none;stroke:#1A476F;stroke-width:8.64"/>
	<circle cx="1598.60" cy="1452.75" r="26.35" style="fill:#1A476F"/>
	<circle cx="1598.60" cy="1452.75" r="22.03" style="fill:none;stroke:#1A476F;stroke-width:8.64"/>
	<circle cx="999.53" cy="1413.64" r="26.35" style="fill:#1A476F"/>
	<circle cx="999.53" cy="1413.64" r="22.03" style="fill:none;stroke:#1A476F;stroke-width:8.64"/>
	<circle cx="1398.87" cy="1439.75" r="26.35" style="fill:#1A476F"/>
	<circle cx="1398.87" cy="1439.75" r="22.03" style="fill:none;stroke:#1A476F;stroke-width:8.64"/>
	<line x1="390.80" y1="2489.19" x2="390.80" y2="100.86" style="stroke:#000000;stroke-width:5.76"/>
	<line x1="390.80" y1="2270.76" x2="350.83" y2="2270.76" style="stroke:#000000;stroke-width:5.76"/>
	<text x="300.72" y="2270.76" style="font-family:'Helvetica';font-size:99.99px;fill:#000000" transform="rotate(-90 300.72,2270.76)" text-anchor="middle">-2000</text>
	<line x1="390.80" y1="1744.06" x2="350.83" y2="1744.06" style="stroke:#000000;stroke-width:5.76"/>
	<text x="300.72" y="1744.06" style="font-family:'Helvetica';font-size:99.99px;fill:#000000" transform="rotate(-90 300.72,1744.06)" text-anchor="middle">-1000</text>
	<line x1="390.80" y1="1217.49" x2="350.83" y2="1217.49" style="stroke:#000000;stroke-width:5.76"/>
	<text x="300.72" y="1217.49" style="font-family:'Helvetica';font-size:99.99px;fill:#000000" transform="rotate(-90 300.72,1217.49)" text-anchor="middle">0</text>
	<line x1="390.80" y1="690.79" x2="350.83" y2="690.79" style="stroke:#000000;stroke-width:5.76"/>
	<text x="300.72" y="690.79" style="font-family:'Helvetica';font-size:99.99px;fill:#000000" transform="rotate(-90 300.72,690.79)" text-anchor="middle">1000</text>
	<line x1="390.80" y1="164.22" x2="350.83" y2="164.22" style="stroke:#000000;stroke-width:5.76"/>
	<text x="300.72" y="164.22" style="font-family:'Helvetica';font-size:99.99px;fill:#000000" transform="rotate(-90 300.72,164.22)" text-anchor="middle">2000</text>
	<text x="190.71" y="1294.96" style="font-family:'Helvetica';font-size:99.99px;fill:#000000" transform="rotate(-90 190.71,1294.96)" text-anchor="middle">Residuals</text>
	<line x1="390.80" y1="2489.19" x2="3859.02" y2="2489.19" style="stroke:#000000;stroke-width:5.76"/>
	<line x1="454.16" y1="2489.19" x2="454.16" y2="2529.16" style="stroke:#000000;stroke-width:5.76"/>
	<text x="454.16" y="2619.14" style="font-family:'Helvetica';font-size:99.99px;fill:#000000" text-anchor="middle">2800</text>
	<line x1="1261.76" y1="2489.19" x2="1261.76" y2="2529.16" style="stroke:#000000;stroke-width:5.76"/>
	<text x="1261.76" y="2619.14" style="font-family:'Helvetica';font-size:99.99px;fill:#000000" text-anchor="middle">2900</text>
	<line x1="2069.47" y1="2489.19" x2="2069.47" y2="2529.16" style="stroke:#000000;stroke-width:5.76"/>
	<text x="2069.47" y="2619.14" style="font-family:'Helvetica';font-size:99.99px;fill:#000000" text-anchor="middle">3000</text>
	<line x1="2877.19" y1="2489.19" x2="2877.19" y2="2529.16" style="stroke:#000000;stroke-width:5.76"/>
	<text x="2877.19" y="2619.14" style="font-family:'Helvetica';font-size:99.99px;fill:#000000" text-anchor="middle">3100</text>
	<line x1="3684.90" y1="2489.19" x2="3684.90" y2="2529.16" style="stroke:#000000;stroke-width:5.76"/>
	<text x="3684.90" y="2619.14" style="font-family:'Helvetica';font-size:99.99px;fill:#000000" text-anchor="middle">3200</text>
	<text x="2124.91" y="2729.16" style="font-family:'Helvetica';font-size:99.99px;fill:#000000" text-anchor="middle">Fitted values</text>
</svg>
